<?xml version="1.0" encoding="utf-8"?>
<!-- Generator: Adobe Illustrator 18.1.1, SVG Export Plug-In . SVG Version: 6.00 Build 0)  -->
<svg version="1.1" id="Layer_1" xmlns="http://www.w3.org/2000/svg" xmlns:xlink="http://www.w3.org/1999/xlink" x="0px" y="0px"
	 viewBox="0 0 500 500" enable-background="new 0 0 500 500" xml:space="preserve">
<rect fill="#FFFFFF" width="500" height="500"/>
<g>
	<polygon fill="#FEE570" points="255.6,432.9 144.6,377.4 144.6,240.8 255.6,296.3 	"/>
	<polygon fill="#F9B61E" points="255.6,432.9 366.6,377.4 366.6,240.8 255.6,296.3 	"/>
	<polygon fill="#FF901D" points="144.6,240.8 251.3,185.3 366.6,240.8 255.6,296.3 	"/>
</g>
<path fill="#ACEDFC" d="M142,176.7L142,176.7c-3.1,2.8-7.9,2.6-10.7-0.5l-49-53.5c-2.8-3.1-2.6-7.9,0.5-10.7l0,0
	c3.1-2.8,7.9-2.6,10.7,0.5l49,53.5C145.2,169.1,145,173.9,142,176.7z"/>
<path fill="#ACEDFC" d="M253.3,67.1L253.3,67.1c4.2,0,7.6,3.4,7.6,7.6v72.5c0,4.2-3.4,7.6-7.6,7.6h0c-4.2,0-7.6-3.4-7.6-7.6l0-72.5
	C245.8,70.5,249.2,67.1,253.3,67.1z"/>
<path fill="#ACEDFC" d="M358,177.5L358,177.5c3.1,2.8,7.9,2.6,10.7-0.5l49-53.5c2.8-3.1,2.6-7.9-0.5-10.7l0,0
	c-3.1-2.8-7.9-2.6-10.7,0.5l-49,53.5C354.8,169.9,355,174.7,358,177.5z"/>
</svg>
