<?xml version="1.0" encoding="utf-8"?>
<!-- Generator: Adobe Illustrator 18.1.1, SVG Export Plug-In . SVG Version: 6.00 Build 0)  -->
<svg version="1.1" xmlns="http://www.w3.org/2000/svg" xmlns:xlink="http://www.w3.org/1999/xlink" x="0px" y="0px"
	 viewBox="0 0 500 500" enable-background="new 0 0 500 500" xml:space="preserve">
<g id="Layer_1">
	<rect x="0.7" y="1.6" fill="#FFFFFF" width="500" height="500"/>
</g>
<g id="Camada_2">
	<path fill="#AFB9D2" d="M322.2,406.8l-19.7-147.9c-1.5-11.1-10.9-19.4-22.1-19.4h-50.2c-11.2,0-20.6,8.3-22.1,19.4l-19.7,147.9
		v22.3h133.8L322.2,406.8L322.2,406.8z"/>
	<path fill="#D5DCED" d="M419.2,350.8H84.6c-18.5,0-33.5-15-33.5-33.5V116.5c0-18.5,15-33.5,33.5-33.5h334.6
		c18.5,0,33.5,15,33.5,33.5v200.8C452.6,335.8,437.6,350.8,419.2,350.8z"/>
	<polygon fill="#BFBFBF" points="421.5,105.6 421.5,148.5 339.8,148.5 350.5,105.6 	"/>
	<polygon fill="#BFBFBF" points="80,105.6 80,137.8 96,148.5 350.5,148.5 350.5,105.6 	"/>
	<g>
		<rect x="80" y="137.8" fill="#489354" width="341.6" height="187.5"/>
		<circle fill="#DDDDDD" cx="386" cy="121.7" r="5.4"/>
		<circle fill="#DDDDDD" cx="364" cy="121.7" r="5.4"/>
	</g>
	<circle fill="#EA7878" cx="408" cy="121.7" r="5.4"/>
	<polygon fill="#DBDDDD" points="90.5,126.9 84.4,116.4 90.5,105.9 156.9,105.9 163,116.4 156.9,126.9 	"/>
	<polygon fill="#A7A8A8" points="169,126.9 163,116.4 169,105.9 235.5,105.9 241.5,116.4 235.5,126.9 	"/>
	<polygon fill="#A7A8A8" points="248.4,126.9 242.3,116.4 248.4,105.9 314.8,105.9 320.9,116.4 314.8,126.9 	"/>
	<rect x="80" y="116.4" fill="#DBDDDD" width="270.6" height="21.4"/>
	<path fill="#FFFFFF" d="M344.3,134.6H87.4c-1.1,0-2-0.9-2-2v-9c0-1.1,0.9-2,2-2h256.9c1.1,0,2,0.9,2,2v9
		C346.3,133.7,345.4,134.6,344.3,134.6z"/>
	<rect x="89.6" y="148.5" fill="#FFFFFF" width="323.7" height="164.4"/>
	<rect x="98.4" y="160.3" fill="#1697BF" width="230.1" height="141.3"/>
	<rect x="97.5" y="258.7" fill="#BC6117" width="230.7" height="43"/>
	<rect x="149.1" y="217.7" fill="#A0613C" width="49.4" height="63"/>
	<polygon fill="#804E30" points="198.4,216.1 198.4,234.3 195.8,235.3 188.4,232.7 181.1,235.3 173.8,232.7 166.4,235.3 
		159.1,232.7 151.8,235.3 149.1,234.3 149.1,216.1 	"/>
	<polygon fill="#BF7447" points="201.1,278.1 195.8,286.1 151.8,286.1 146.4,278.1 	"/>
	<g>
		<rect x="195.8" y="269.9" fill="#FF9B5F" width="22" height="16.3"/>
		<rect x="129.8" y="269.9" fill="#FF9B5F" width="22" height="16.3"/>
		<rect x="195.8" y="237.3" fill="#FF9B5F" width="22" height="16.3"/>
		<rect x="129.8" y="237.3" fill="#FF9B5F" width="22" height="16.3"/>
	</g>
	<g>
		<rect x="195.8" y="253.6" fill="#DF8853" width="22" height="16.3"/>
		<rect x="129.8" y="253.6" fill="#DF8853" width="22" height="16.3"/>
		<polygon fill="#DF8853" points="217.8,224.2 217.8,237.3 195.8,237.3 195.8,226.7 203.1,218.8 		"/>
	</g>
	<polygon fill="#BF7447" points="217.8,215.6 217.8,224.2 210.4,226.7 203.1,224.2 195.8,226.7 195.8,215.6 	"/>
	<polygon fill="#DF8853" points="151.8,226.7 151.8,237.3 129.8,237.3 129.8,224.2 144.4,218.8 	"/>
	<polygon fill="#BF7447" points="151.8,215.6 151.8,226.7 144.4,224.2 137.1,226.7 129.8,224.2 129.8,215.6 	"/>
	<path fill="#FFCC3D" d="M173.8,163.7c0,0-29.3,23.2-58.7,54.8l7.3,2.6l7.3-2.6l7.3,2.6l7.3-2.6l7.3,2.6l7.3-2.6l7.3,2.6l7.3-2.6
		l7.3,2.6l7.3-2.6l7.3,2.6l7.3-2.6l7.3,2.6l7.3-2.6l7.3,2.6l7.3-2.6C203.1,186.9,173.8,163.7,173.8,163.7z"/>
	<g>
		<circle fill="#FFBB02" cx="192.3" cy="194.6" r="2"/>
		<circle fill="#FFBB02" cx="158.1" cy="208.1" r="2"/>
		<circle fill="#FFBB02" cx="152.8" cy="200" r="2"/>
	</g>
	<g>
		<path fill="#804E30" d="M128.4,267.8c-1.1,0-2,0.9-2,2c0,1.1,0.9,2,2,2h23.3v-4L128.4,267.8L128.4,267.8z"/>
		<path fill="#804E30" d="M128.4,251.6c-1.1,0-2,0.9-2,2s0.9,2,2,2h23.3v-4L128.4,251.6L128.4,251.6z"/>
		<path fill="#804E30" d="M128.4,235.3c-1.1,0-2,0.9-2,2s0.9,2,2,2h23.3v-4L128.4,235.3L128.4,235.3z"/>
		<path fill="#804E30" d="M219.1,267.8h-23.3v4h23.3c1.1,0,2-0.9,2-2C221.1,268.7,220.2,267.8,219.1,267.8z"/>
		<path fill="#804E30" d="M219.1,251.6h-23.3v4h23.3c1.1,0,2-0.9,2-2S220.2,251.6,219.1,251.6z"/>
		<path fill="#804E30" d="M219.1,235.3h-23.3v4h23.3c1.1,0,2-0.9,2-2C221.1,236.2,220.2,235.3,219.1,235.3z"/>
	</g>
	<path fill="#EF9659" d="M280.2,195.9c2.7,0,4.8-2.2,4.8-4.8c0-2.7-2.2-4.8-4.8-4.8h-35.9c-2.7,0-4.8,2.2-4.8,4.8
		c0,2.7,2.2,4.8,4.8,4.8H280.2z"/>
	<path fill="#D87C48" d="M239.5,191.1c0,2.7,2.2,4.8,4.8,4.8h35.9c2.7,0,4.8-2.2,4.8-4.8H239.5z"/>
	<path fill="#EF9659" d="M298.2,197.6c-2.7,0-5,2.2-5,5v10h-12.3h-4.6h-9.2v-1.7c7.1-1.7,12.4-8.1,12.4-15.7V185
		c0-0.6,0-1.2-0.1-1.8c-15.6-0.3-27-6.9-30.1-8.8c-2.5,2.8-4,6.5-4,10.6v10.2c0,7.6,5.3,14,12.4,15.7v1.7h-8.5h-5.4h-11.5v-10
		c0-2.7-2.2-5-5-5l0,0c-2.7,0-5,2.2-5,5v14.7c0,2.8,2.2,5,5,5h16.5v17.2c0,2.1,0.4,4.1,1,5.9v41.8h11.8v-31.4l11.5-0.6v0.6v31.4
		h11.5c0,0-0.2-40.7,0-41c1-2,1.3-4.3,1.3-6.6v-17.2h17.2c2.8,0,5-2.2,5-5v-14.7C303.2,199.8,300.9,197.6,298.2,197.6z"/>
	<path fill="#FFFFFF" d="M267.3,195.4c0,2.7-2.2,4.9-4.9,4.9c-2.7,0-4.9-2.2-4.9-4.9L267.3,195.4z"/>
	<g>
		<circle fill="#844235" cx="256.9" cy="188.4" r="2.1"/>
		<circle fill="#844235" cx="267.3" cy="188.4" r="2.1"/>
	</g>
	<rect x="243.8" y="234" fill="#174F79" width="37.1" height="5.5"/>
	<path fill="#73AFD6" d="M243.8,239.5c0,2.1,0,20.9,0,20.9l1,20.9h12l-0.2-25c1.4,0.4,3,0.6,4.5,0.6h2.5c1.6,0,3.1-0.2,4.5-0.6l0,26
		c0,0,5,0.1,12.2,0c0.8-1.8,0.6-40.6,0.6-42.7L243.8,239.5L243.8,239.5z"/>
	<path fill="#844235" d="M263.4,168.9h-2c-4.8,0-9.1,2.1-12.1,5.5c3,2,14.4,8.6,30.1,8.8C278.5,175.2,271.6,168.9,263.4,168.9z"/>
	<path opacity="0.29" fill="#174F79" enable-background="new    " d="M256.6,255.8l0,0.5c1.4,0.4,3,0.6,4.5,0.6h2.5
		c1.6,0,3.1-0.2,4.5-0.6l0-0.5c0-1.8,0.3-3.4,0.9-4.7h-13.7C256.2,252.4,256.6,254.1,256.6,255.8z"/>
	<polygon fill="#FFFFFF" points="237.4,211.5 236,223.5 242.6,223.5 242.6,234 283.1,234 283.1,222.8 288,222.8 289.2,211.5 
		269,211.5 264.3,216.2 259,216.5 255.3,211.5 	"/>
	<g>
		<circle fill="#FFB125" cx="305.9" cy="191.1" r="17.3"/>
		<path fill="#FF901D" d="M305.9,173.8c-0.5,0-1.1,0-1.6,0.1c8.8,0.8,15.7,8.2,15.7,17.2s-6.9,16.4-15.7,17.2c0.5,0,1.1,0.1,1.6,0.1
			c9.5,0,17.3-7.7,17.3-17.3S315.4,173.8,305.9,173.8z"/>
		<g>
			<circle fill="#F4D451" cx="305.9" cy="191.1" r="13.5"/>
			<path fill="#FEE570" d="M305.9,176.7c-0.3,0-0.5-0.2-0.5-0.5v-0.8c0-0.3,0.2-0.5,0.5-0.5c0.3,0,0.5,0.2,0.5,0.5v0.8
				C306.4,176.4,306.1,176.7,305.9,176.7z"/>
			<path fill="#FEE570" d="M305.9,207.4c-0.3,0-0.5-0.2-0.5-0.5V206c0-0.3,0.2-0.5,0.5-0.5c0.3,0,0.5,0.2,0.5,0.5v0.8
				C306.4,207.1,306.1,207.4,305.9,207.4z"/>
			<path fill="#FEE570" d="M321.6,191.6h-0.8c-0.3,0-0.5-0.2-0.5-0.5s0.2-0.5,0.5-0.5h0.8c0.3,0,0.5,0.2,0.5,0.5
				S321.9,191.6,321.6,191.6z"/>
			<path fill="#FEE570" d="M290.9,191.6h-0.8c-0.3,0-0.5-0.2-0.5-0.5s0.2-0.5,0.5-0.5h0.8c0.3,0,0.5,0.2,0.5,0.5
				S291.2,191.6,290.9,191.6z"/>
			<path fill="#FEE570" d="M316.4,181c-0.1,0-0.3,0-0.4-0.1c-0.2-0.2-0.2-0.5,0-0.7l0.6-0.6c0.2-0.2,0.5-0.2,0.7,0
				c0.2,0.2,0.2,0.5,0,0.7l-0.6,0.6C316.7,181,316.6,181,316.4,181z"/>
			<path fill="#FEE570" d="M294.7,202.7c-0.1,0-0.3,0-0.4-0.1c-0.2-0.2-0.2-0.5,0-0.7l0.6-0.6c0.2-0.2,0.5-0.2,0.7,0
				c0.2,0.2,0.2,0.5,0,0.7l-0.6,0.6C295,202.7,294.9,202.7,294.7,202.7z"/>
			<path fill="#FEE570" d="M317,202.7c-0.1,0-0.3,0-0.4-0.1l-0.6-0.6c-0.2-0.2-0.2-0.5,0-0.7c0.2-0.2,0.5-0.2,0.7,0l0.6,0.6
				c0.2,0.2,0.2,0.5,0,0.7C317.3,202.7,317.1,202.7,317,202.7z"/>
			<path fill="#FEE570" d="M295.3,181c-0.1,0-0.3,0-0.4-0.1l-0.6-0.6c-0.2-0.2-0.2-0.5,0-0.7c0.2-0.2,0.5-0.2,0.7,0l0.6,0.6
				c0.2,0.2,0.2,0.5,0,0.7C295.6,181,295.4,181,295.3,181z"/>
			<path fill="#FEE570" d="M311.9,177.9c-0.1,0-0.1,0-0.2,0c-0.3-0.1-0.4-0.4-0.3-0.7l0.3-0.7c0.1-0.3,0.4-0.4,0.7-0.3
				c0.3,0.1,0.4,0.4,0.3,0.7l-0.3,0.7C312.3,177.8,312.1,177.9,311.9,177.9z"/>
			<path fill="#FEE570" d="M299.5,206c-0.1,0-0.1,0-0.2,0c-0.3-0.1-0.4-0.4-0.3-0.7l0.3-0.7c0.1-0.3,0.4-0.4,0.7-0.3
				c0.3,0.1,0.4,0.4,0.3,0.7l-0.3,0.7C299.9,205.9,299.7,206,299.5,206z"/>
			<path fill="#FEE570" d="M320.3,197.9c-0.1,0-0.1,0-0.2,0l-0.7-0.3c-0.3-0.1-0.4-0.4-0.3-0.7c0.1-0.3,0.4-0.4,0.7-0.3l0.7,0.3
				c0.3,0.1,0.4,0.4,0.3,0.7C320.7,197.8,320.5,197.9,320.3,197.9z"/>
			<path fill="#FEE570" d="M292.2,185.6c-0.1,0-0.1,0-0.2,0l-0.7-0.3c-0.3-0.1-0.4-0.4-0.3-0.7c0.1-0.3,0.4-0.4,0.7-0.3l0.7,0.3
				c0.3,0.1,0.4,0.4,0.3,0.7C292.6,185.5,292.4,185.6,292.2,185.6z"/>
			<path fill="#FEE570" d="M319.8,186.2c-0.2,0-0.4-0.1-0.5-0.3c-0.1-0.3,0-0.6,0.3-0.7l0.8-0.3c0.3-0.1,0.6,0,0.7,0.3
				c0.1,0.3,0,0.6-0.3,0.7l-0.8,0.3C319.9,186.2,319.9,186.2,319.8,186.2z"/>
			<path fill="#FEE570" d="M291.2,197.3c-0.2,0-0.4-0.1-0.5-0.3c-0.1-0.3,0-0.6,0.3-0.7l0.8-0.3c0.3-0.1,0.6,0,0.7,0.3
				c0.1,0.3,0,0.6-0.3,0.7l-0.8,0.3C291.3,197.3,291.3,197.3,291.2,197.3z"/>
			<path fill="#FEE570" d="M311.6,206.3c-0.2,0-0.4-0.1-0.5-0.3l-0.3-0.8c-0.1-0.3,0-0.6,0.3-0.7c0.3-0.1,0.6,0,0.7,0.3l0.3,0.8
				c0.1,0.3,0,0.6-0.3,0.7C311.7,206.3,311.7,206.3,311.6,206.3z"/>
			<path fill="#FEE570" d="M300.4,177.7c-0.2,0-0.4-0.1-0.5-0.3l-0.3-0.8c-0.1-0.3,0-0.6,0.3-0.7c0.3-0.1,0.6,0,0.7,0.3l0.3,0.8
				c0.1,0.3,0,0.6-0.3,0.7C300.6,177.7,300.5,177.7,300.4,177.7z"/>
		</g>
		<path fill="#F4D451" d="M315.4,200.6c5.3-5.3,5.3-13.8,0-19.1l-19.1,19.1C301.6,205.9,310.1,205.9,315.4,200.6z"/>
		<path fill="#FEE570" d="M305.9,177.5c-7.5,0-13.6,6.1-13.6,13.6c0,1.5,0.2,2.9,0.7,4.3h4.1V184l8.8,8.8l8.8-8.8v11.4h4.1
			c0.4-1.3,0.7-2.8,0.7-4.3C319.4,183.6,313.4,177.5,305.9,177.5"/>
		<path fill="#FEE570" d="M303.8,194.8L300,191v7.2h-5.7c2.4,3.9,6.7,6.5,11.6,6.5c4.9,0,9.2-2.6,11.6-6.5h-5.7V191l-3.8,3.8l-2,2
			L303.8,194.8L303.8,194.8L303.8,194.8z"/>
		<path fill="#F9F6E8" d="M294.3,205.1"/>
	</g>
	<g>
		<polygon fill="#65CE80" points="370.2,172 338.6,215.6 360.3,215.6 360.3,239.3 380.1,239.3 380.1,215.6 401.9,215.6 		"/>
		<path fill="#65CE80" d="M376.2,247.2h-11.9c-2.2,0-4,1.8-4,4s1.8,4,4,4h11.9c2.2,0,4-1.8,4-4S378.4,247.2,376.2,247.2"/>
		<path fill="#65CE80" d="M376.2,263.1h-11.9c-2.2,0-4,1.8-4,4c0,2.2,1.8,4,4,4h11.9c2.2,0,4-1.8,4-4
			C380.1,264.9,378.4,263.1,376.2,263.1"/>
		<path fill="#65CE80" d="M376.2,278.9h-11.9c-2.2,0-4,1.8-4,4s1.8,4,4,4h11.9c2.2,0,4-1.8,4-4C380.1,280.7,378.4,278.9,376.2,278.9
			"/>
	</g>
</g>
</svg>
