<?xml version="1.0" encoding="utf-8"?>
<!-- Generator: Adobe Illustrator 18.1.1, SVG Export Plug-In . SVG Version: 6.00 Build 0)  -->
<svg version="1.1" xmlns="http://www.w3.org/2000/svg" xmlns:xlink="http://www.w3.org/1999/xlink" x="0px" y="0px"
	 viewBox="0 0 500 500" enable-background="new 0 0 500 500" xml:space="preserve">
<g id="Camada_2">
	<rect x="1.6" fill="#FFFFFF" width="500" height="500"/>
	<path fill="#AFB9D2" d="M377.6,455.3l-15.2-114.3c-1.1-8.6-8.4-15-17.1-15h-38.8c-8.6,0-15.9,6.4-17.1,15l-15.2,114.3v17.2h103.4
		L377.6,455.3L377.6,455.3z"/>
	<path fill="#D5DCED" d="M455.1,388.4H196.5c-14.3,0-25.9-11.6-25.9-25.9V207.4c0-14.3,11.6-25.9,25.9-25.9h258.6
		c14.3,0,25.9,11.6,25.9,25.9v155.2C481,376.9,469.4,388.4,455.1,388.4z"/>
	<polygon fill="#BFBFBF" points="462.1,199 462.1,232.1 399,232.1 407.2,199 	"/>
	<polygon fill="#BFBFBF" points="198.1,199 198.1,223.8 210.5,232.1 407.2,232.1 407.2,199 	"/>
	<g>
		<rect x="198.1" y="223.8" fill="#FFFFFF" width="264" height="144.9"/>
		<circle fill="#DDDDDD" cx="434.7" cy="211.4" r="4.1"/>
		<circle fill="#DDDDDD" cx="417.7" cy="211.4" r="4.1"/>
	</g>
	<circle fill="#EA7878" cx="451.6" cy="211.4" r="4.1"/>
	<g>
		<path fill="#0F3F17" d="M284.1,280.2c-0.1,0-0.3,0-0.4,0c-1.2-0.2-2.2-1-2.6-2.2l-7.1-23.8c-0.5-1.6,0.4-3.4,2.1-3.9
			c1.6-0.5,3.4,0.4,3.9,2.1l5.1,17.1l4.9-8.2c0.6-0.9,1.6-1.5,2.7-1.5s2.1,0.6,2.7,1.5l4.9,8.2l5.1-17.1c0.5-1.6,2.2-2.6,3.9-2.1
			c1.6,0.5,2.6,2.2,2.1,3.9l-7.1,23.9c-0.4,1.2-1.4,2-2.6,2.2c-1.2,0.2-2.4-0.4-3-1.5l-5.9-9.8l-5.9,9.8
			C286.2,279.6,285.2,280.2,284.1,280.2z"/>
		<path fill="#0F3F17" d="M325.8,280.2c-0.1,0-0.3,0-0.4,0c-1.2-0.2-2.2-1-2.6-2.2l-7.1-23.8c-0.5-1.6,0.4-3.4,2.1-3.9
			c1.6-0.5,3.4,0.4,3.9,2.1l5.1,17.1l4.9-8.2c0.6-0.9,1.6-1.5,2.7-1.5s2.1,0.6,2.7,1.5l4.9,8.2l5.1-17.1c0.5-1.6,2.2-2.6,3.9-2.1
			c1.6,0.5,2.6,2.2,2.1,3.9l-7.1,23.9c-0.4,1.2-1.4,2-2.6,2.2c-1.2,0.2-2.4-0.4-3-1.5l-5.9-9.8l-5.9,9.8
			C327.9,279.6,326.9,280.2,325.8,280.2z"/>
		<path fill="#0F3F17" d="M384.7,280.2c-1.1,0-2.1-0.6-2.7-1.5l-5.9-9.8l-5.9,9.8c-0.6,1.1-1.8,1.6-3,1.5c-1.2-0.2-2.2-1-2.6-2.2
			l-7.1-23.8c-0.5-1.6,0.4-3.4,2.1-3.9c1.6-0.5,3.4,0.4,3.9,2.1l5.1,17.1l4.9-8.2c0.6-0.9,1.6-1.5,2.7-1.5s2.1,0.6,2.7,1.5l4.9,8.2
			l5.1-17.1c0.5-1.6,2.2-2.6,3.9-2.1c1.6,0.5,2.6,2.2,2.1,3.9l-7.1,23.9c-0.4,1.2-1.4,2-2.6,2.2C385,280.1,384.8,280.2,384.7,280.2z
			"/>
	</g>
	<g>
		<path fill="#75D643" d="M384.2,309.1h-12.4c-1.7,0-3.1-1.4-3.1-3.1c0-1.7,1.4-3.1,3.1-3.1h12.4c1.7,0,3.1,1.4,3.1,3.1
			C387.3,307.8,385.9,309.1,384.2,309.1z"/>
		<path fill="#75D643" d="M359.6,309.1h-80.6c-2.3,0-4.1-1.4-4.1-3.1c0-1.7,1.8-3.1,4.1-3.1h80.6c2.3,0,4.1,1.4,4.1,3.1
			C363.7,307.8,361.8,309.1,359.6,309.1z"/>
		<path fill="#75D643" d="M363.9,338.1h-12.4c-1.7,0-3.1-1.4-3.1-3.1s1.4-3.1,3.1-3.1h12.4c1.7,0,3.1,1.4,3.1,3.1
			S365.6,338.1,363.9,338.1z"/>
		<path fill="#75D643" d="M339,338.1h-61.1c-1.7,0-3.1-1.4-3.1-3.1s1.4-3.1,3.1-3.1H339c1.7,0,3.1,1.4,3.1,3.1
			S340.7,338.1,339,338.1z"/>
		<path fill="#75D643" d="M339,324.1h-61.1c-1.7,0-3.1-1.4-3.1-3.1s1.4-3.1,3.1-3.1H339c1.7,0,3.1,1.4,3.1,3.1
			S340.7,324.1,339,324.1z"/>
	</g>
	<polygon fill="#DBDDDD" points="206.2,215.4 201.5,207.3 206.2,199.1 257.6,199.1 262.3,207.3 257.6,215.4 	"/>
	<polygon fill="#A7A8A8" points="267,215.4 262.3,207.3 267,199.1 318.3,199.1 323,207.3 318.3,215.4 	"/>
	<polygon fill="#A7A8A8" points="328.3,215.4 323.6,207.3 328.3,199.1 379.6,199.1 384.3,207.3 379.6,215.4 	"/>
	<rect x="198.1" y="207.3" fill="#DBDDDD" width="209.1" height="16.6"/>
	<path fill="#FFFFFF" d="M402,221.3H204.3c-1.1,0-2-0.9-2-2v-6.1c0-1.1,0.9-2,2-2H402c1.1,0,2,0.9,2,2v6.1
		C404,220.4,403.1,221.3,402,221.3z"/>
</g>
<g id="Layer_1">
	<path fill="#E6AF78" d="M105.5,222.5v39.8c0,6.1-3.9,11.4-9.7,13.2l-60.4,18.6c-11.6,3.6-19.5,14.3-19.5,26.4v100.3
		c0,19,15.4,34.5,34.5,34.5h17.2h181l-18.1-173.1c0,0-18.1-3.7-23.5-7.3c-5.4-3.6-6.1-11.7-6.1-11.7l0.1-40.6H105.5z"/>
	<path fill="#E6AF78" d="M227.1,162.2h-1.3l-3-60.3H85.9v60.3h-5.4c-7.1,0-12.9,5.8-12.9,12.9v17.2c0,7.1,5.8,12.9,12.9,12.9h8.2
		l1.4,8.8c1.1,6.6,4.5,12.6,9.6,16.8l27.7,23.1c3.7,3.1,8.4,4.8,13.2,4.8H167c4.8,0,9.5-1.7,13.2-4.8l27.7-23.1
		c5.1-4.3,8.5-10.2,9.6-16.8l1.4-8.8h8.2c7.1,0,12.9-5.8,12.9-12.9v-17.2C240,168,234.2,162.2,227.1,162.2z"/>
	<path fill="#E6AF78" d="M222.8,101.8h-86.2H85.9v60.3h-5.4c-7.1,0-12.9,5.8-12.9,12.9v17.2c0,7.1,5.8,12.9,12.9,12.9h8.2l1.4,8.8
		c1.1,6.6,23.8,7.7,28.9,12l17.6-20.5c4.9,26.2,0.2-5,20.7,10.5s35.1,27.8,35.1,27.8c-1.6-1.6,0,0-25.3,6.3
		c-20.5-16.5-30.5-39.1-30.5-44.6v-52c0-4.8,3.9-8.6,8.6-8.6l0,0c0,0,8.6,0,12.1-4.1c5.3,2.7,11.1,4.1,17.2,4.1
		c6.1,0,12-1.5,17.2-4.1c5.3,2.7,11.1,4.1,17.2,4.1c0.9,0,1.7-0.1,2.6-0.2l13.4,0L222.8,101.8z"/>
	<path fill="#E6AF78" d="M224,412.2h88.5c14.3,0,25.9,11.6,25.9,25.9v17.2H224V412.2z"/>
	<path fill="#F5DCB4" d="M481.4,489.8H260.7l16.6-34.5h204.1c4.8,0,8.6,3.9,8.6,8.6v17.2C490,485.9,486.1,489.8,481.4,489.8z"/>
	<rect x="208" y="412.2" fill="#00C3F0" width="87.2" height="42.8"/>
	<path fill="#59D8FF" d="M153.8,326c-33.4,1.2-62.8-17.5-79.7-43.8l-38.7,11.9c-11.6,3.6-19.5,14.3-19.5,26.4V482
		c0,19,15.4,14.5,34.5,14.5h17.2c0,0,134.3,0,166.6,0c23.7,0,40,1.8,43.5-15.8c0,0,0-118.8,0-162.4c0-20.6-9-25.5-29-31.7
		c-3.2-1-11-2.8-11-2.8l-7.1-1.7C207,315.3,201.3,324.3,153.8,326z"/>
	<g>
		<path fill="#00C3F0" d="M153.8,326L153.8,326c-33.4,0-62.8-17.5-79.7-43.8L57,287.4c19.4,33.3,55.4,55.7,96.8,55.8l0,0V326z"/>
	</g>
	<path fill="#694B4B" d="M257.2,100.1c0-9.6-6.5-17.5-15.3-19.9c1-2.4,1.5-5,1.5-7.7c0-11.4-9.3-20.7-20.7-20.7
		c-0.4,0-0.8,0.1-1.2,0.1c-2.8-8.1-10.4-13.9-19.5-13.9c-2.2,0-4.3,0.4-6.3,1.1c-4.4-4.9-10.7-8-17.8-8c-1.8,0-3.6,0.2-5.3,0.6
		c-4.9-4.6-11.5-7.5-18.8-7.5c-7.3,0-13.9,2.9-18.8,7.5c-1.7-0.4-3.5-0.6-5.3-0.6c-6.6,0-12.5,2.6-16.9,6.9c-0.1,0-0.2,0-0.4,0
		c-9,0-16.6,5.8-19.5,13.9c-0.4,0-0.8-0.1-1.2-0.1C80.3,51.8,71,61.1,71,72.5c0,2.7,0.6,5.3,1.5,7.7c-8.8,2.4-15.3,10.3-15.3,19.9
		c0,5.3,2.1,10.1,5.4,13.8c-3.3,3.7-5.4,8.5-5.4,13.8c0,7.7,4.2,14.3,10.4,17.8c0.3,9.3,7.9,16.7,17.2,16.7h7.5
		c3.4,0,6.2-2.4,6.8-5.8l4.8-28.9c0.5,0,1,0.2,1.5,0.2c7.2,0,13.5-3.7,17.2-9.3c3.7,5.6,10,9.3,17.2,9.3s13.5-3.7,17.2-9.3
		c3.7,5.6,10,9.3,17.2,9.3s13.5-3.7,17.2-9.3c3.7,5.6,10,9.3,17.2,9.3c0.5,0,1-0.1,1.5-0.2l4.8,28.9c0.6,3.3,3.4,5.8,6.8,5.8h9.3
		c9.5,0,17.2-7.7,17.2-17.2c0-0.2,0-0.3-0.1-0.5c5.2-3.7,8.7-9.8,8.7-16.7c0-5.3-2.1-10.1-5.4-13.8
		C255.2,110.2,257.2,105.4,257.2,100.1z"/>
	<path fill="#694B4B" d="M76.4,160.4c0,7.8,5,14.3,11.9,16.3c-0.7,1.9-1.2,4.1-1.2,6.3c0,9.4,7.2,16.9,16,16.9c0.3,0,0.6-0.1,1-0.1
		c2.2,6.6,8.1,11.4,15.1,11.4c1.7,0,3.4-0.3,4.9-0.9c3.4,4,8.3,6.5,13.8,6.5c1.4,0,2.8-0.2,4.1-0.5c3.8,3.8,8.9,6.2,14.6,6.2
		c5.7,0,10.8-2.4,14.6-6.2c1.3,0.3,2.7,0.5,4.1,0.5c5.1,0,9.7-2.2,13.1-5.7c0.1,0,0.2,0,0.3,0c7,0,12.9-4.8,15.1-11.4
		c0.3,0,0.6,0.1,1,0.1c8.9,0,16-7.6,16-16.9c0-2.2-0.4-4.3-1.2-6.3c6.8-1.9,11.9-8.5,11.9-16.3c0-4.4-1.6-8.3-4.2-11.3
		c2.6-3,4.2-6.9,4.2-11.3c0-6.3-3.3-11.7-8.1-14.6c-0.2-7.6-6.1-13.6-13.3-13.6h-5.8c-2.6,0-4.8,2-5.3,4.7l-3.7-4.9
		c-0.4,0-4.2,9.1-4.6,9.1c-5.6,0-7.1-6.2-9.9-1.6c-2.9-4.6-7.8-7.6-13.4-7.6c-5.6,0-10.5,3-13.4,7.6c-2.9-4.6-7.8-7.6-13.4-7.6
		s-10.5,3-13.4,7.6c-2.9-4.6-7.8-7.6-13.4-7.6c-0.4,0-6.2-15.3-2.5,8.4l-2.4-3.4c-0.4-2.7-2.7-4.7-5.3-4.7h-7.2
		c-7.4,0-13.4,6.3-13.4,14.1c0,0.1,0,0.3,0,0.4c-4.1,3.1-6.7,8-6.7,13.7c0,4.4,1.6,8.3,4.2,11.3C78,152.1,76.4,156.1,76.4,160.4z"/>
	<path fill="#5A4146" d="M143.3,99.9c0,0-8.5,2.3-8.5-6.7c0-5.3,2.1-10.1,5.4-13.8c-3.3-3.7-5.4-8.5-5.4-13.8
		c0-9.6,6.5-17.5,15.3-19.9c-1-2.4-1.5-5-1.5-7.7c0-5.3,2.1-10.1,5.4-13.8c-0.1,0-0.1,0-0.2,0c-7.3,0-13.9,2.9-18.8,7.5
		c-1.7-0.4-3.5-0.6-5.3-0.6c-6.6,0-12.5,2.6-16.9,6.9c-0.1,0-0.2,0-0.4,0c-9,0-16.6,5.8-19.5,13.9c-0.4,0-0.8-0.1-1.2-0.1
		C80.3,51.8,71,61.1,71,72.5c0,2.7,0.6,5.3,1.5,7.7c-8.8,2.4-15.3,10.3-15.3,19.9c0,5.3,2.1,10.1,5.4,13.8
		c-3.3,3.7-5.4,8.5-5.4,13.8c0,7.7,4.2,14.3,10.4,17.8c0.3,9.3,7.9,16.7,17.2,16.7h7.5c3.4,0,6.2-2.4,6.8-5.8l4.8-28.9
		c0.5,0,1,0.2,1.5,0.2c7.2,0,13.5-3.7,17.2-9.3c3.7,5.6,10,9.3,17.2,9.3c4.8,0,15.4,0.3,18.9-2.4c-3.6-0.6-15.9-7.4-15.9-11.1
		C140.6,109.4,143.3,99.9,143.3,99.9z"/>
	<path fill="#5A4146" d="M147.6,121c-9,4.3,0.3,6.7-7.1-0.8c-4.4-4.4-2.7-11.8-3-17.6c-5.7-0.3-11.4-2.6-15.8-7
		c-7.9-7.9-9-19.8-3.7-29.1c-2.8-1.2-5.3-2.9-7.6-5.1c-4.4-4.4-6.6-10.1-6.9-15.8c-0.1,0.1-0.1,0.1-0.2,0.1c-6,6-9.1,13.8-9.4,21.7
		c-1.7,1.1-3.4,2.3-4.9,3.8c-5.4,5.4-8.2,12.5-8.3,19.6c-0.1,0.1-0.2,0.2-0.3,0.3c-7.5,7.4-9,18.5-4.6,27.5
		c-0.4,0.3-0.8,0.6-1.1,0.9c-9.5,9.4-9.5,24.7-0.1,34.1c2.2,2.3,4.8,3.9,7.6,5.1c-5.3,9.2-4.2,21.2,3.7,29.1c4.4,4.4,10,6.7,15.8,7
		c0.3,5.8,2.5,11.4,6.9,15.8c6.3,6.3,15.2,8.3,23.3,6.2c7.9,7.4,20.2,7.3,27.9-0.4l6.2-6.2c2.8-2.8,3.2-7.2,0.9-10.4l-19.8-27.8
		c0.5-0.4,1-0.7,1.4-1.1c6-5.9,8.2-14.2,6.6-21.9c7.7,1.6,1.9,0.4,7.9-5.5c3.9-3.9-4.2-18.5-4.2-18.5l0,0
		C158.5,124.9,147.9,121.4,147.6,121z"/>
	<g>
		<path fill="#00C3F0" d="M150.8,343.2L150.8,343.2c41.3,0,77.4-23.5,96.8-56.8l-17.1-4.2c-16.9,26.3-46.3,43.8-79.7,43.8
			c-32.2,0,0,0,0,0V343.2z"/>
	</g>
</g>
</svg>
