<?xml version="1.0" encoding="utf-8"?>
<!-- Generator: Adobe Illustrator 18.1.1, SVG Export Plug-In . SVG Version: 6.00 Build 0)  -->
<svg version="1.1" xmlns="http://www.w3.org/2000/svg" xmlns:xlink="http://www.w3.org/1999/xlink" x="0px" y="0px"
	 viewBox="0 0 500 500" enable-background="new 0 0 500 500" xml:space="preserve">
<g id="Camada_2">
	<path display="none" fill="#AFB9D2" d="M377.6,455.3l-15.2-114.3c-1.1-8.6-8.4-15-17.1-15h-38.8c-8.6,0-15.9,6.4-17.1,15
		l-15.2,114.3v17.2h103.4L377.6,455.3L377.6,455.3z"/>
	<path display="none" fill="#D5DCED" d="M455.1,388.4H196.5c-14.3,0-25.9-11.6-25.9-25.9V207.4c0-14.3,11.6-25.9,25.9-25.9h258.6
		c14.3,0,25.9,11.6,25.9,25.9v155.2C481,376.9,469.4,388.4,455.1,388.4z"/>
</g>
<g id="Camada_3">
	<g>
		<defs>
			<rect id="SVGID_1_" width="500" height="500"/>
		</defs>
		<clipPath id="SVGID_2_">
			<use xlink:href="#SVGID_1_"  overflow="visible"/>
		</clipPath>
		<g clip-path="url(#SVGID_2_)">
			<defs>
				<rect id="SVGID_3_" x="30.5" y="-22.5" width="540.9" height="540.9"/>
			</defs>
			<clipPath id="SVGID_4_">
				<use xlink:href="#SVGID_3_"  overflow="visible"/>
			</clipPath>
			<g clip-path="url(#SVGID_4_)">
				<defs>
					<rect id="SVGID_5_" x="22.4" y="69.6" width="609.9" height="509.8"/>
				</defs>
				<clipPath id="SVGID_6_">
					<use xlink:href="#SVGID_5_"  overflow="visible"/>
				</clipPath>
				<g clip-path="url(#SVGID_6_)">
					<defs>
						<rect id="SVGID_7_" x="51.5" y="85.1" width="609.9" height="595.2"/>
					</defs>
					<clipPath id="SVGID_8_">
						<use xlink:href="#SVGID_7_"  overflow="visible"/>
					</clipPath>
					<g clip-path="url(#SVGID_8_)">
						<polygon fill="#BFBFBF" points="1329,94.5 1329,250.4 1024.5,250.4 1064.4,94.5 						"/>
						<path fill="#BFBFBF" d="M56.2,104.8v106.6l59.9,39h948.4V94.5H66.7C60.9,94.5,56.2,99.1,56.2,104.8z"/>
						<g>
							<rect x="56.2" y="211.4" fill="#489354" width="1272.8" height="527.7"/>
							<ellipse fill="#DDDDDD" cx="1196.7" cy="152.9" rx="20" ry="19.5"/>
							<ellipse fill="#DDDDDD" cx="1114.8" cy="152.9" rx="20" ry="19.5"/>
						</g>
						<ellipse fill="#EA7878" cx="1278.6" cy="152.9" rx="20" ry="19.5"/>
						<polygon fill="#DBDDDD" points="95.3,171.6 72.8,133.5 95.3,95.3 343,95.3 365.6,133.5 343,171.6 						"/>
						<polygon fill="#A7A8A8" points="388.1,171.6 365.6,133.5 388.1,95.3 635.8,95.3 658.4,133.5 635.8,171.6 						"/>
						<rect x="56.2" y="133.5" fill="#DBDDDD" width="1008.3" height="77.9"/>
						<path fill="#FFFFFF" d="M1046.8,196.9H212.2c-1.1,0-2-0.9-2-2v-43.8c0-1.1,0.9-2,2-2h834.7c1.1,0,2,0.9,2,2v43.8
							C1048.8,196,1047.9,196.9,1046.8,196.9z"/>
						<path fill="#505050" stroke="#505050" stroke-miterlimit="10" d="M76.1,162.9c0.3-0.3,0.9-0.3,1.2,0c0.3,0.3,0.3,0.9,0,1.2
							l-6.1,6h20.3c0.5,0,0.9,0.4,0.9,0.8c0,0.5-0.4,0.8-0.9,0.8H71.1l6.1,6c0.3,0.3,0.3,0.9,0,1.2c-0.3,0.3-0.9,0.3-1.2,0l-7.6-7.4
							c-0.3-0.3-0.3-0.9,0-1.2L76.1,162.9z"/>
						<path fill="#848484" stroke="#848484" stroke-miterlimit="10" d="M117.7,179c-0.3,0.3-0.9,0.3-1.2,0c-0.3-0.3-0.3-0.9,0-1.2
							l6.1-6h-20.3c-0.5,0-0.9-0.4-0.9-0.8c0-0.5,0.4-0.8,0.9-0.8h20.3l-6.1-6c-0.3-0.3-0.3-0.9,0-1.2c0.3-0.3,0.9-0.3,1.2,0
							l7.6,7.4c0.3,0.3,0.3,0.9,0,1.2L117.7,179z"/>
						<g>
							<path fill="#505050" stroke="#505050" stroke-miterlimit="10" d="M161.6,175.2c-0.2-0.5-0.7-0.7-1.1-0.6l-1.2,0.4
								c0.7-1.5,1.1-3.1,1.1-4.7c0-5.9-4.9-10.8-11-10.8c-6.1,0-11,4.8-11,10.8s5,10.8,11,10.8c0.5,0,0.9-0.4,0.9-0.9
								c0-0.5-0.4-0.9-0.9-0.9c-5.1,0-9.2-4-9.2-9c0-5,4.1-9,9.2-9c5.1,0,9.2,4,9.2,9c0,1.4-0.3,2.7-0.9,3.9l-0.4-1.2
								c-0.2-0.5-0.7-0.7-1.1-0.6c-0.5,0.2-0.7,0.6-0.6,1.1l1.1,3.2c0.1,0.4,0.5,0.6,0.9,0.6c0.1,0,0.2,0,0.3,0l3.3-1
								C161.5,176.2,161.8,175.7,161.6,175.2z"/>
						</g>
						<g>
							<g id="Shape_379">
								<g>
									<path fill="#505050" stroke="#505050" stroke-miterlimit="10" d="M198.6,169.5l-12-11.7c-0.2-0.2-0.4-0.2-0.6,0l-12,11.7
										c-0.2,0.2-0.2,0.4,0,0.6c0.1,0.1,0.2,0.1,0.3,0.1v0h2.9v11.3c0,0.1,0,0.2,0.1,0.3c0.1,0.1,0.2,0.1,0.3,0.1h5.8
										c0.2,0,0.4-0.2,0.4-0.4v-8.1h5v8.1c0,0.2,0.2,0.4,0.4,0.4h5.8c0.2,0,0.4-0.2,0.4-0.4v-11.3h2.9c0.1,0,0.2,0,0.3-0.1
										C198.7,169.9,198.8,169.7,198.6,169.5z M195,169.4L195,169.4c-0.1,0-0.1,0-0.2,0.1c-0.1,0.1-0.3,0.2-0.3,0.4v11.3h-5v-8.1
										c0-0.2-0.2-0.4-0.4-0.4h-5.8c-0.2,0-0.4,0.2-0.4,0.4v8.1h-5v-11.3c0-0.2-0.1-0.3-0.3-0.4c0,0-0.1,0-0.2,0v0l-2.3,0l11-10.7
										l11,10.7L195,169.4z"/>
								</g>
							</g>
						</g>
						<g>
							<path fill="#3A3D3B" d="M231.1,180.2h-1.9v-6.8c0-2.5-0.9-3.7-2.8-3.7c-0.9,0-1.7,0.4-2.4,1.1c-0.6,0.7-1,1.6-1,2.7v6.7h-1.9
								v-17.5h1.9v7.6h0c0.9-1.5,2.2-2.2,4-2.2c2.7,0,4.1,1.6,4.1,4.8V180.2z"/>
							<path fill="#3A3D3B" d="M240.4,180c-0.5,0.2-1.1,0.4-1.8,0.4c-2.1,0-3.2-1.2-3.2-3.5v-7h-2.1v-1.6h2.1v-2.9l1.9-0.6v3.5h3
								v1.6h-3v6.6c0,0.8,0.1,1.4,0.4,1.7c0.3,0.3,0.7,0.5,1.4,0.5c0.5,0,0.9-0.1,1.3-0.4V180z"/>
							<path fill="#3A3D3B" d="M248.6,180c-0.5,0.2-1.1,0.4-1.8,0.4c-2.1,0-3.2-1.2-3.2-3.5v-7h-2.1v-1.6h2.1v-2.9l1.9-0.6v3.5h3
								v1.6h-3v6.6c0,0.8,0.1,1.4,0.4,1.7c0.3,0.3,0.7,0.5,1.4,0.5c0.5,0,0.9-0.1,1.3-0.4V180z"/>
							<path fill="#3A3D3B" d="M253.1,178.4L253.1,178.4l0,7.1h-1.9v-17.2h1.9v2.1h0c1-1.6,2.3-2.3,4.2-2.3c1.6,0,2.8,0.5,3.6,1.6
								c0.9,1.1,1.3,2.5,1.3,4.2c0,2-0.5,3.6-1.5,4.7c-1,1.2-2.3,1.8-4,1.8C255.2,180.4,254,179.8,253.1,178.4z M253.1,173.7v1.6
								c0,1,0.3,1.8,1,2.5s1.5,1,2.5,1c1.2,0,2.1-0.4,2.8-1.3c0.7-0.9,1-2.1,1-3.6c0-1.3-0.3-2.3-0.9-3.1c-0.6-0.7-1.5-1.1-2.5-1.1
								c-1.1,0-2,0.4-2.7,1.1C253.4,171.6,253.1,172.5,253.1,173.7z"/>
							<path fill="#3A3D3B" d="M266,170.7c-0.4,0-0.7-0.1-0.9-0.4c-0.3-0.3-0.4-0.6-0.4-0.9c0-0.4,0.1-0.7,0.4-0.9
								c0.3-0.2,0.6-0.4,0.9-0.4c0.4,0,0.7,0.1,0.9,0.4c0.3,0.2,0.4,0.5,0.4,0.9c0,0.4-0.1,0.7-0.4,0.9
								C266.7,170.5,266.4,170.7,266,170.7z M266,180.4c-0.4,0-0.7-0.1-0.9-0.4c-0.3-0.3-0.4-0.6-0.4-0.9c0-0.4,0.1-0.7,0.4-0.9
								c0.3-0.3,0.6-0.4,0.9-0.4c0.4,0,0.7,0.1,0.9,0.4c0.3,0.3,0.4,0.6,0.4,0.9c0,0.4-0.1,0.7-0.4,0.9
								C266.7,180.3,266.4,180.4,266,180.4z"/>
							<path fill="#3A3D3B" d="M278.2,163.6l-8.1,19.2h-1.8l8.1-19.2H278.2z"/>
							<path fill="#3A3D3B" d="M287.6,163.6l-8.1,19.2h-1.8l8.1-19.2H287.6z"/>
							<path fill="#3A3D3B" d="M306.6,180.2h-1.9v-6.8c0-1.3-0.2-2.2-0.6-2.8c-0.4-0.6-1.1-0.9-2.1-0.9c-0.8,0-1.5,0.4-2.1,1.1
								c-0.6,0.7-0.9,1.6-0.9,2.6v6.7H297v-7c0-2.3-0.9-3.5-2.7-3.5c-0.8,0-1.5,0.3-2.1,1c-0.6,0.7-0.8,1.6-0.8,2.7v6.7h-1.9v-11.8
								h1.9v1.9h0c0.9-1.4,2.1-2.1,3.8-2.1c0.8,0,1.5,0.2,2.2,0.7s1,1,1.3,1.8c0.9-1.6,2.2-2.4,4-2.4c2.7,0,4,1.6,4,4.8V180.2z"/>
							<path fill="#3A3D3B" d="M318.9,180.2h-1.9v-1.8h0c-0.8,1.4-2.1,2.1-3.7,2.1c-1.2,0-2.1-0.3-2.8-0.9c-0.7-0.6-1-1.4-1-2.5
								c0-2.2,1.3-3.5,4-3.8l3.6-0.5c0-2-0.8-3-2.5-3c-1.5,0-2.8,0.5-3.9,1.5v-1.9c1.2-0.7,2.6-1.1,4.1-1.1c2.8,0,4.3,1.5,4.3,4.4
								V180.2z M316.9,174.2l-2.9,0.4c-0.9,0.1-1.6,0.3-2,0.7c-0.5,0.3-0.7,0.9-0.7,1.7c0,0.6,0.2,1,0.6,1.4c0.4,0.4,1,0.5,1.7,0.5
								c1,0,1.8-0.3,2.4-1c0.6-0.7,0.9-1.5,0.9-2.5V174.2z"/>
							<path fill="#3A3D3B" d="M332.6,180.2h-1.9v-6.7c0-2.5-0.9-3.8-2.8-3.8c-1,0-1.8,0.4-2.4,1.1c-0.6,0.7-0.9,1.6-0.9,2.7v6.7
								h-1.9v-11.8h1.9v2h0c0.9-1.5,2.2-2.2,4-2.2c1.3,0,2.3,0.4,3,1.2c0.7,0.8,1,2,1,3.6V180.2z"/>
							<path fill="#3A3D3B" d="M344.8,180.2h-1.9v-1.8h0c-0.8,1.4-2.1,2.1-3.7,2.1c-1.2,0-2.1-0.3-2.8-0.9c-0.7-0.6-1-1.4-1-2.5
								c0-2.2,1.3-3.5,4-3.8l3.6-0.5c0-2-0.8-3-2.5-3c-1.5,0-2.8,0.5-3.9,1.5v-1.9c1.2-0.7,2.6-1.1,4.1-1.1c2.8,0,4.3,1.5,4.3,4.4
								V180.2z M342.9,174.2l-2.9,0.4c-0.9,0.1-1.6,0.3-2,0.7c-0.5,0.3-0.7,0.9-0.7,1.7c0,0.6,0.2,1,0.6,1.4c0.4,0.4,1,0.5,1.7,0.5
								c1,0,1.8-0.3,2.4-1c0.6-0.7,0.9-1.5,0.9-2.5V174.2z"/>
							<path fill="#3A3D3B" d="M358.8,180.2h-1.9v-2h0c-0.9,1.5-2.3,2.3-4.2,2.3c-1.5,0-2.7-0.5-3.6-1.6c-0.9-1.1-1.4-2.5-1.4-4.3
								c0-1.9,0.5-3.5,1.5-4.7c1-1.2,2.3-1.8,4-1.8c1.7,0,2.9,0.6,3.6,1.9h0v-7.3h1.9V180.2z M356.9,174.8v-1.7c0-1-0.3-1.8-1-2.4
								c-0.6-0.7-1.5-1-2.5-1c-1.2,0-2.1,0.4-2.8,1.3c-0.7,0.8-1,2-1,3.5c0,1.4,0.3,2.4,1,3.2c0.6,0.8,1.5,1.2,2.6,1.2
								c1.1,0,2-0.4,2.6-1.1C356.5,176.9,356.9,176,356.9,174.8z"/>
							<path fill="#3A3D3B" d="M371.4,180.2h-1.9v-1.8h0c-0.8,1.4-2.1,2.1-3.7,2.1c-1.2,0-2.1-0.3-2.8-0.9c-0.7-0.6-1-1.4-1-2.5
								c0-2.2,1.3-3.5,4-3.8l3.6-0.5c0-2-0.8-3-2.5-3c-1.5,0-2.8,0.5-3.9,1.5v-1.9c1.2-0.7,2.6-1.1,4.1-1.1c2.8,0,4.3,1.5,4.3,4.4
								V180.2z M369.4,174.2l-2.9,0.4c-0.9,0.1-1.6,0.3-2,0.7c-0.5,0.3-0.7,0.9-0.7,1.7c0,0.6,0.2,1,0.6,1.4c0.4,0.4,1,0.5,1.7,0.5
								c1,0,1.8-0.3,2.4-1c0.6-0.7,0.9-1.5,0.9-2.5V174.2z"/>
							<path fill="#3A3D3B" d="M375.7,180.4c-0.4,0-0.7-0.1-0.9-0.4c-0.3-0.3-0.4-0.6-0.4-0.9c0-0.4,0.1-0.7,0.4-0.9
								c0.3-0.3,0.6-0.4,0.9-0.4c0.4,0,0.7,0.1,0.9,0.4c0.3,0.3,0.4,0.6,0.4,0.9c0,0.4-0.1,0.7-0.4,0.9
								C376.4,180.3,376,180.4,375.7,180.4z"/>
							<path fill="#3A3D3B" d="M397.4,180.2h-1.9v-6.8c0-1.3-0.2-2.2-0.6-2.8c-0.4-0.6-1.1-0.9-2.1-0.9c-0.8,0-1.5,0.4-2.1,1.1
								c-0.6,0.7-0.9,1.6-0.9,2.6v6.7h-1.9v-7c0-2.3-0.9-3.5-2.7-3.5c-0.8,0-1.5,0.3-2.1,1c-0.6,0.7-0.8,1.6-0.8,2.7v6.7h-1.9v-11.8
								h1.9v1.9h0c0.9-1.4,2.1-2.1,3.8-2.1c0.8,0,1.5,0.2,2.2,0.7s1,1,1.3,1.8c0.9-1.6,2.2-2.4,4-2.4c2.7,0,4,1.6,4,4.8V180.2z"/>
							<path fill="#3A3D3B" d="M410.8,174.7h-8.5c0,1.3,0.4,2.3,1.1,3c0.7,0.7,1.6,1.1,2.9,1.1c1.4,0,2.6-0.4,3.8-1.3v1.8
								c-1.1,0.8-2.5,1.1-4.2,1.1c-1.7,0-3-0.5-4-1.6c-1-1.1-1.5-2.6-1.5-4.5c0-1.8,0.5-3.3,1.6-4.5c1.1-1.2,2.4-1.7,4-1.7
								c1.6,0,2.8,0.5,3.7,1.5c0.9,1,1.3,2.4,1.3,4.2V174.7z M408.8,173.1c0-1.1-0.3-1.9-0.8-2.5c-0.5-0.6-1.3-0.9-2.2-0.9
								c-0.9,0-1.7,0.3-2.3,1c-0.6,0.6-1,1.5-1.2,2.5H408.8z"/>
							<path fill="#3A3D3B" d="M421.3,163.6l-8.1,19.2h-1.8l8.1-19.2H421.3z"/>
							<path fill="#3A3D3B" d="M433.4,180.2h-1.9v-2h0c-0.9,1.5-2.3,2.3-4.2,2.3c-1.5,0-2.7-0.5-3.6-1.6c-0.9-1.1-1.4-2.5-1.4-4.3
								c0-1.9,0.5-3.5,1.5-4.7s2.3-1.8,4-1.8c1.7,0,2.9,0.6,3.6,1.9h0v-7.3h1.9V180.2z M431.5,174.8v-1.7c0-1-0.3-1.8-1-2.4
								c-0.6-0.7-1.5-1-2.5-1c-1.2,0-2.1,0.4-2.8,1.3c-0.7,0.8-1,2-1,3.5c0,1.4,0.3,2.4,1,3.2c0.6,0.8,1.5,1.2,2.6,1.2
								c1.1,0,2-0.4,2.6-1.1C431.1,176.9,431.5,176,431.5,174.8z"/>
							<path fill="#3A3D3B" d="M442.4,180.4c-1.8,0-3.2-0.6-4.3-1.7c-1.1-1.1-1.6-2.6-1.6-4.4c0-2,0.6-3.5,1.7-4.6
								c1.1-1.1,2.6-1.7,4.5-1.7c1.8,0,3.2,0.5,4.2,1.6c1,1.1,1.5,2.6,1.5,4.5c0,1.9-0.5,3.4-1.6,4.5
								C445.7,179.9,444.2,180.4,442.4,180.4z M442.5,169.7c-1.2,0-2.2,0.4-2.9,1.2c-0.7,0.8-1.1,2-1.1,3.4c0,1.4,0.4,2.5,1.1,3.3
								c0.7,0.8,1.7,1.2,2.9,1.2c1.3,0,2.2-0.4,2.9-1.2c0.7-0.8,1-1.9,1-3.4c0-1.5-0.3-2.6-1-3.4
								C444.7,170.1,443.8,169.7,442.5,169.7z"/>
							<path fill="#3A3D3B" d="M461.5,180.2h-1.9v-6.7c0-2.5-0.9-3.8-2.8-3.8c-1,0-1.8,0.4-2.4,1.1c-0.6,0.7-0.9,1.6-0.9,2.7v6.7
								h-1.9v-11.8h1.9v2h0c0.9-1.5,2.2-2.2,4-2.2c1.3,0,2.3,0.4,3,1.2c0.7,0.8,1,2,1,3.6V180.2z"/>
							<path fill="#3A3D3B" d="M473.8,180.2h-1.9v-1.8h0c-0.8,1.4-2.1,2.1-3.7,2.1c-1.2,0-2.1-0.3-2.8-0.9s-1-1.4-1-2.5
								c0-2.2,1.3-3.5,4-3.8l3.6-0.5c0-2-0.8-3-2.5-3c-1.5,0-2.8,0.5-3.9,1.5v-1.9c1.2-0.7,2.6-1.1,4.1-1.1c2.8,0,4.3,1.5,4.3,4.4
								V180.2z M471.9,174.2l-2.9,0.4c-0.9,0.1-1.6,0.3-2,0.7c-0.5,0.3-0.7,0.9-0.7,1.7c0,0.6,0.2,1,0.6,1.4c0.4,0.4,1,0.5,1.7,0.5
								c1,0,1.8-0.3,2.4-1c0.6-0.7,0.9-1.5,0.9-2.5V174.2z"/>
							<path fill="#3A3D3B" d="M483,180c-0.5,0.2-1.1,0.4-1.8,0.4c-2.1,0-3.2-1.2-3.2-3.5v-7H476v-1.6h2.1v-2.9l1.9-0.6v3.5h3v1.6
								h-3v6.6c0,0.8,0.1,1.4,0.4,1.7c0.3,0.3,0.7,0.5,1.4,0.5c0.5,0,0.9-0.1,1.3-0.4V180z"/>
							<path fill="#3A3D3B" d="M486.6,165.4c-0.3,0-0.6-0.1-0.9-0.3s-0.4-0.5-0.4-0.9c0-0.4,0.1-0.6,0.4-0.9
								c0.2-0.2,0.5-0.4,0.9-0.4c0.4,0,0.7,0.1,0.9,0.4c0.2,0.2,0.4,0.5,0.4,0.9c0,0.3-0.1,0.6-0.4,0.9
								C487.3,165.3,487,165.4,486.6,165.4z M487.6,180.2h-1.9v-11.8h1.9V180.2z"/>
							<path fill="#3A3D3B" d="M496.5,180.4c-1.8,0-3.2-0.6-4.3-1.7c-1.1-1.1-1.6-2.6-1.6-4.4c0-2,0.6-3.5,1.7-4.6
								c1.1-1.1,2.6-1.7,4.5-1.7c1.8,0,3.2,0.5,4.2,1.6c1,1.1,1.5,2.6,1.5,4.5c0,1.9-0.5,3.4-1.6,4.5
								C499.8,179.9,498.4,180.4,496.5,180.4z M496.7,169.7c-1.2,0-2.2,0.4-2.9,1.2c-0.7,0.8-1.1,2-1.1,3.4c0,1.4,0.4,2.5,1.1,3.3
								s1.7,1.2,2.9,1.2c1.3,0,2.2-0.4,2.9-1.2c0.7-0.8,1-1.9,1-3.4c0-1.5-0.3-2.6-1-3.4C498.9,170.1,497.9,169.7,496.7,169.7z"/>
							<path fill="#3A3D3B" d="M515.7,180.2h-1.9v-6.7c0-2.5-0.9-3.8-2.8-3.8c-1,0-1.8,0.4-2.4,1.1c-0.6,0.7-0.9,1.6-0.9,2.7v6.7
								h-1.9v-11.8h1.9v2h0c0.9-1.5,2.2-2.2,4-2.2c1.3,0,2.3,0.4,3,1.2c0.7,0.8,1,2,1,3.6V180.2z"/>
						</g>
						<g>
							<path fill="#DBDBD9" d="M402.2,120.9h-1.8l-6.5-9.9c-0.2-0.2-0.3-0.5-0.4-0.8h-0.1c0,0.3,0.1,0.8,0.1,1.7v8.9h-1.5v-12.4h1.9
								l6.4,9.7c0.3,0.4,0.4,0.7,0.5,0.8h0c-0.1-0.4-0.1-1-0.1-1.8v-8.7h1.5V120.9z"/>
							<path fill="#DBDBD9" d="M412.6,116.8h-6.4c0,1,0.3,1.7,0.8,2.3c0.5,0.5,1.2,0.8,2.1,0.8c1,0,2-0.3,2.8-1v1.3
								c-0.8,0.6-1.8,0.8-3.2,0.8c-1.3,0-2.3-0.4-3-1.2c-0.7-0.8-1.1-1.9-1.1-3.4c0-1.4,0.4-2.5,1.2-3.4c0.8-0.9,1.8-1.3,3-1.3
								s2.1,0.4,2.8,1.1c0.6,0.7,1,1.8,1,3.1V116.8z M411.1,115.6c0-0.8-0.2-1.5-0.6-1.9c-0.4-0.5-1-0.7-1.7-0.7
								c-0.7,0-1.3,0.2-1.7,0.7c-0.5,0.5-0.8,1.1-0.9,1.9H411.1z"/>
							<path fill="#DBDBD9" d="M426.2,112l-2.7,8.8H422l-1.9-6.3c-0.1-0.2-0.1-0.5-0.1-0.8h0c0,0.2-0.1,0.5-0.2,0.8l-2,6.3h-1.5
								l-2.7-8.8h1.5l1.9,6.6c0.1,0.2,0.1,0.5,0.1,0.8h0.1c0-0.3,0.1-0.5,0.2-0.8l2.1-6.6h1.3l1.9,6.7c0.1,0.2,0.1,0.5,0.1,0.8h0.1
								c0-0.2,0.1-0.5,0.2-0.8l1.8-6.7H426.2z"/>
							<path fill="#DBDBD9" d="M440.6,120.1c0,3.2-1.6,4.9-4.8,4.9c-1.1,0-2.1-0.2-2.9-0.6V123c1,0.6,2,0.8,2.9,0.8
								c2.2,0,3.3-1.2,3.3-3.5v-1h0c-0.7,1.1-1.7,1.7-3.1,1.7c-1.1,0-2-0.4-2.7-1.2s-1-1.8-1-3.2c0-1.5,0.4-2.7,1.1-3.6
								s1.8-1.3,3-1.3c1.2,0,2.1,0.5,2.7,1.4h0V112h1.5V120.1z M439.1,116.9v-1.3c0-0.7-0.2-1.3-0.7-1.8c-0.5-0.5-1.1-0.8-1.8-0.8
								c-0.9,0-1.6,0.3-2.1,1c-0.5,0.6-0.8,1.5-0.8,2.7c0,1,0.2,1.8,0.7,2.4c0.5,0.6,1.1,0.9,1.9,0.9c0.8,0,1.5-0.3,2-0.8
								S439.1,117.7,439.1,116.9z"/>
							<path fill="#DBDBD9" d="M450.8,120.9h-1.5v-1.4h0c-0.6,1.1-1.5,1.6-2.8,1.6c-2.2,0-3.2-1.3-3.2-3.8V112h1.4v5.1
								c0,1.9,0.7,2.8,2.2,2.8c0.7,0,1.3-0.3,1.7-0.8s0.7-1.2,0.7-2V112h1.5V120.9z"/>
							<path fill="#DBDBD9" d="M454.5,109.8c-0.3,0-0.5-0.1-0.7-0.3c-0.2-0.2-0.3-0.4-0.3-0.7s0.1-0.5,0.3-0.7
								c0.2-0.2,0.4-0.3,0.7-0.3c0.3,0,0.5,0.1,0.7,0.3c0.2,0.2,0.3,0.4,0.3,0.7c0,0.3-0.1,0.5-0.3,0.6
								C455,109.7,454.8,109.8,454.5,109.8z M455.2,120.9h-1.5V112h1.5V120.9z"/>
							<path fill="#DBDBD9" d="M465.9,120.9h-1.5v-1.5h0c-0.7,1.1-1.7,1.7-3.1,1.7c-1.1,0-2-0.4-2.7-1.2c-0.7-0.8-1-1.9-1-3.2
								c0-1.5,0.4-2.6,1.1-3.5c0.8-0.9,1.8-1.3,3-1.3c1.2,0,2.1,0.5,2.7,1.4h0v-5.5h1.5V120.9z M464.4,116.9v-1.3
								c0-0.7-0.2-1.3-0.7-1.8c-0.5-0.5-1.1-0.7-1.8-0.7c-0.9,0-1.6,0.3-2.1,0.9s-0.8,1.5-0.8,2.6c0,1,0.2,1.8,0.7,2.4
								c0.5,0.6,1.1,0.9,2,0.9c0.8,0,1.5-0.3,2-0.9C464.2,118.4,464.4,117.7,464.4,116.9z"/>
							<path fill="#DBDBD9" d="M476.1,116.8h-6.4c0,1,0.3,1.7,0.8,2.3c0.5,0.5,1.2,0.8,2.1,0.8c1,0,2-0.3,2.8-1v1.3
								c-0.8,0.6-1.8,0.8-3.2,0.8c-1.3,0-2.3-0.4-3-1.2c-0.7-0.8-1.1-1.9-1.1-3.4c0-1.4,0.4-2.5,1.2-3.4c0.8-0.9,1.8-1.3,3-1.3
								s2.1,0.4,2.8,1.1c0.6,0.7,1,1.8,1,3.1V116.8z M474.6,115.6c0-0.8-0.2-1.5-0.6-1.9c-0.4-0.5-1-0.7-1.7-0.7
								c-0.7,0-1.3,0.2-1.7,0.7c-0.5,0.5-0.8,1.1-0.9,1.9H474.6z"/>
						</g>
						<g>
							<path fill="#333333" d="M148.2,120.9h-1.5v-8.3c0-0.7,0-1.5,0.1-2.4h0c-0.1,0.6-0.3,1-0.4,1.2l-4.3,9.5h-0.7l-4.3-9.4
								c-0.1-0.3-0.3-0.7-0.4-1.3h0c0,0.5,0.1,1.3,0.1,2.4v8.3h-1.4v-12.4h2l3.9,8.6c0.3,0.7,0.5,1.2,0.6,1.5h0.1
								c0.3-0.7,0.5-1.2,0.6-1.5l4-8.6h1.9V120.9z"/>
							<path fill="#333333" d="M157.8,120.9h-1.5v-1.4h0c-0.6,1.1-1.6,1.6-2.8,1.6c-0.9,0-1.6-0.2-2.1-0.7c-0.5-0.5-0.8-1.1-0.8-1.9
								c0-1.7,1-2.6,3-2.9l2.7-0.4c0-1.5-0.6-2.3-1.9-2.3c-1.1,0-2.1,0.4-3,1.1v-1.5c0.9-0.6,1.9-0.8,3.1-0.8c2.1,0,3.2,1.1,3.2,3.3
								V120.9z M156.4,116.4l-2.2,0.3c-0.7,0.1-1.2,0.3-1.5,0.5c-0.3,0.2-0.5,0.6-0.5,1.2c0,0.4,0.2,0.8,0.5,1.1
								c0.3,0.3,0.7,0.4,1.3,0.4c0.7,0,1.3-0.2,1.8-0.7c0.5-0.5,0.7-1.1,0.7-1.9V116.4z"/>
							<path fill="#333333" d="M168.1,120.9h-1.5v-5c0-1.9-0.7-2.8-2.1-2.8c-0.7,0-1.3,0.3-1.8,0.8c-0.5,0.5-0.7,1.2-0.7,2v5h-1.5
								V112h1.5v1.5h0c0.7-1.1,1.7-1.7,3-1.7c1,0,1.7,0.3,2.3,0.9s0.8,1.5,0.8,2.7V120.9z"/>
							<path fill="#333333" d="M177.3,120.9h-1.5v-1.4h0c-0.6,1.1-1.6,1.6-2.8,1.6c-0.9,0-1.6-0.2-2.1-0.7c-0.5-0.5-0.8-1.1-0.8-1.9
								c0-1.7,1-2.6,3-2.9l2.7-0.4c0-1.5-0.6-2.3-1.9-2.3c-1.1,0-2.1,0.4-3,1.1v-1.5c0.9-0.6,1.9-0.8,3.1-0.8c2.1,0,3.2,1.1,3.2,3.3
								V120.9z M175.8,116.4l-2.2,0.3c-0.7,0.1-1.2,0.3-1.5,0.5c-0.3,0.2-0.5,0.6-0.5,1.2c0,0.4,0.2,0.8,0.5,1.1
								c0.3,0.3,0.7,0.4,1.3,0.4c0.7,0,1.3-0.2,1.8-0.7c0.5-0.5,0.7-1.1,0.7-1.9V116.4z"/>
							<path fill="#333333" d="M187.8,120.9h-1.5v-1.5h0c-0.7,1.1-1.7,1.7-3.1,1.7c-1.1,0-2-0.4-2.7-1.2c-0.7-0.8-1-1.9-1-3.2
								c0-1.5,0.4-2.6,1.1-3.5c0.8-0.9,1.8-1.3,3-1.3c1.2,0,2.1,0.5,2.7,1.4h0v-5.5h1.5V120.9z M186.3,116.9v-1.3
								c0-0.7-0.2-1.3-0.7-1.8c-0.5-0.5-1.1-0.7-1.8-0.7c-0.9,0-1.6,0.3-2.1,0.9c-0.5,0.6-0.8,1.5-0.8,2.6c0,1,0.2,1.8,0.7,2.4
								c0.5,0.6,1.1,0.9,2,0.9c0.8,0,1.5-0.3,2-0.9C186.1,118.4,186.3,117.7,186.3,116.9z"/>
							<path fill="#333333" d="M197.2,120.9h-1.5v-1.4h0c-0.6,1.1-1.6,1.6-2.8,1.6c-0.9,0-1.6-0.2-2.1-0.7c-0.5-0.5-0.8-1.1-0.8-1.9
								c0-1.7,1-2.6,3-2.9l2.7-0.4c0-1.5-0.6-2.3-1.9-2.3c-1.1,0-2.1,0.4-3,1.1v-1.5c0.9-0.6,1.9-0.8,3.1-0.8c2.1,0,3.2,1.1,3.2,3.3
								V120.9z M195.7,116.4l-2.2,0.3c-0.7,0.1-1.2,0.3-1.5,0.5c-0.3,0.2-0.5,0.6-0.5,1.2c0,0.4,0.2,0.8,0.5,1.1
								c0.3,0.3,0.7,0.4,1.3,0.4c0.7,0,1.3-0.2,1.8-0.7c0.5-0.5,0.7-1.1,0.7-1.9V116.4z"/>
							<path fill="#333333" d="M200.4,121c-0.3,0-0.5-0.1-0.7-0.3s-0.3-0.4-0.3-0.7c0-0.3,0.1-0.5,0.3-0.7c0.2-0.2,0.4-0.3,0.7-0.3
								c0.3,0,0.5,0.1,0.7,0.3c0.2,0.2,0.3,0.4,0.3,0.7c0,0.3-0.1,0.5-0.3,0.7C200.9,121,200.7,121,200.4,121z"/>
							<path fill="#333333" d="M216.7,120.9h-1.5v-5.1c0-1-0.2-1.7-0.5-2.1c-0.3-0.4-0.8-0.7-1.6-0.7c-0.6,0-1.1,0.3-1.6,0.8
								c-0.4,0.6-0.7,1.2-0.7,2v5h-1.5v-5.2c0-1.7-0.7-2.6-2.1-2.6c-0.6,0-1.2,0.3-1.6,0.8c-0.4,0.5-0.6,1.2-0.6,2v5h-1.5V112h1.5
								v1.4h0c0.6-1.1,1.6-1.6,2.8-1.6c0.6,0,1.2,0.2,1.6,0.5c0.5,0.3,0.8,0.8,0.9,1.3c0.7-1.2,1.7-1.8,3-1.8c2,0,3,1.2,3,3.6V120.9
								z"/>
							<path fill="#333333" d="M226.7,116.8h-6.4c0,1,0.3,1.7,0.8,2.3c0.5,0.5,1.2,0.8,2.1,0.8c1,0,2-0.3,2.8-1v1.3
								c-0.8,0.6-1.8,0.8-3.2,0.8c-1.3,0-2.3-0.4-3-1.2c-0.7-0.8-1.1-1.9-1.1-3.4c0-1.4,0.4-2.5,1.2-3.4c0.8-0.9,1.8-1.3,3-1.3
								s2.1,0.4,2.8,1.1s1,1.8,1,3.1V116.8z M225.2,115.6c0-0.8-0.2-1.5-0.6-1.9c-0.4-0.5-1-0.7-1.7-0.7c-0.7,0-1.3,0.2-1.7,0.7
								c-0.5,0.5-0.8,1.1-0.9,1.9H225.2z"/>
							<path fill="#333333" d="M238.5,116.5h-4.8v-1.1h4.8V116.5z"/>
							<path fill="#333333" d="M246.3,120.9v-12.4h3.5c4.5,0,6.7,2,6.7,6c0,1.9-0.6,3.4-1.9,4.6s-2.9,1.7-5,1.7H246.3z M247.8,109.8
								v9.8h1.9c1.7,0,3-0.4,3.9-1.3c0.9-0.9,1.4-2.1,1.4-3.7c0-3.2-1.7-4.8-5.2-4.8H247.8z"/>
							<path fill="#333333" d="M262.6,121.1c-1.3,0-2.4-0.4-3.2-1.2c-0.8-0.8-1.2-1.9-1.2-3.3c0-1.5,0.4-2.6,1.2-3.5
								c0.8-0.8,2-1.3,3.4-1.3c1.4,0,2.4,0.4,3.2,1.2c0.8,0.8,1.1,1.9,1.1,3.4c0,1.4-0.4,2.5-1.2,3.4
								C265.1,120.6,264,121.1,262.6,121.1z M262.7,113c-0.9,0-1.7,0.3-2.2,0.9c-0.5,0.6-0.8,1.5-0.8,2.6c0,1,0.3,1.9,0.8,2.5
								c0.5,0.6,1.3,0.9,2.2,0.9c0.9,0,1.7-0.3,2.2-0.9c0.5-0.6,0.8-1.4,0.8-2.5c0-1.1-0.3-2-0.8-2.6
								C264.4,113.3,263.6,113,262.7,113z"/>
							<path fill="#333333" d="M276.9,120.9h-1.5v-5c0-1.9-0.7-2.8-2.1-2.8c-0.7,0-1.3,0.3-1.8,0.8c-0.5,0.5-0.7,1.2-0.7,2v5h-1.5
								V112h1.5v1.5h0c0.7-1.1,1.7-1.7,3-1.7c1,0,1.7,0.3,2.3,0.9c0.5,0.6,0.8,1.5,0.8,2.7V120.9z"/>
							<path fill="#333333" d="M286.2,120.9h-1.5v-1.4h0c-0.6,1.1-1.6,1.6-2.8,1.6c-0.9,0-1.6-0.2-2.1-0.7c-0.5-0.5-0.8-1.1-0.8-1.9
								c0-1.7,1-2.6,3-2.9l2.7-0.4c0-1.5-0.6-2.3-1.9-2.3c-1.1,0-2.1,0.4-3,1.1v-1.5c0.9-0.6,1.9-0.8,3.1-0.8c2.1,0,3.2,1.1,3.2,3.3
								V120.9z M284.7,116.4l-2.2,0.3c-0.7,0.1-1.2,0.3-1.5,0.5c-0.3,0.2-0.5,0.6-0.5,1.2c0,0.4,0.2,0.8,0.5,1.1
								c0.3,0.3,0.7,0.4,1.3,0.4c0.7,0,1.3-0.2,1.8-0.7c0.5-0.5,0.7-1.1,0.7-1.9V116.4z"/>
							<path fill="#333333" d="M293.1,120.8c-0.3,0.2-0.8,0.3-1.4,0.3c-1.6,0-2.4-0.9-2.4-2.6v-5.2h-1.6V112h1.6v-2.2l1.5-0.5v2.6
								h2.3v1.2h-2.3v5c0,0.6,0.1,1,0.3,1.3c0.2,0.3,0.5,0.4,1,0.4c0.4,0,0.7-0.1,0.9-0.3V120.8z"/>
							<path fill="#333333" d="M295.8,109.8c-0.3,0-0.5-0.1-0.7-0.3c-0.2-0.2-0.3-0.4-0.3-0.7s0.1-0.5,0.3-0.7
								c0.2-0.2,0.4-0.3,0.7-0.3c0.3,0,0.5,0.1,0.7,0.3c0.2,0.2,0.3,0.4,0.3,0.7c0,0.3-0.1,0.5-0.3,0.6
								C296.3,109.7,296,109.8,295.8,109.8z M296.5,120.9H295V112h1.5V120.9z"/>
							<path fill="#333333" d="M306.9,120.9h-1.5v-5c0-1.9-0.7-2.8-2.1-2.8c-0.7,0-1.3,0.3-1.8,0.8c-0.5,0.5-0.7,1.2-0.7,2v5h-1.5
								V112h1.5v1.5h0c0.7-1.1,1.7-1.7,3-1.7c1,0,1.7,0.3,2.3,0.9s0.8,1.5,0.8,2.7V120.9z"/>
							<path fill="#333333" d="M317.4,120.1c0,3.2-1.6,4.9-4.8,4.9c-1.1,0-2.1-0.2-2.9-0.6V123c1,0.6,2,0.8,2.9,0.8
								c2.2,0,3.3-1.2,3.3-3.5v-1h0c-0.7,1.1-1.7,1.7-3.1,1.7c-1.1,0-2-0.4-2.7-1.2c-0.7-0.8-1-1.8-1-3.2c0-1.5,0.4-2.7,1.1-3.6
								c0.7-0.9,1.8-1.3,3-1.3c1.2,0,2.1,0.5,2.7,1.4h0V112h1.5V120.1z M316,116.9v-1.3c0-0.7-0.2-1.3-0.7-1.8s-1.1-0.8-1.8-0.8
								c-0.9,0-1.6,0.3-2.1,1c-0.5,0.6-0.8,1.5-0.8,2.7c0,1,0.2,1.8,0.7,2.4c0.5,0.6,1.1,0.9,1.9,0.9c0.8,0,1.5-0.3,2-0.8
								S316,117.7,316,116.9z"/>
							<path fill="#333333" d="M320.8,121c-0.3,0-0.5-0.1-0.7-0.3s-0.3-0.4-0.3-0.7c0-0.3,0.1-0.5,0.3-0.7c0.2-0.2,0.4-0.3,0.7-0.3
								c0.3,0,0.5,0.1,0.7,0.3c0.2,0.2,0.3,0.4,0.3,0.7c0,0.3-0.1,0.5-0.3,0.7C321.4,121,321.1,121,320.8,121z"/>
							<path fill="#333333" d="M324.8,121c-0.3,0-0.5-0.1-0.7-0.3s-0.3-0.4-0.3-0.7c0-0.3,0.1-0.5,0.3-0.7c0.2-0.2,0.4-0.3,0.7-0.3
								c0.3,0,0.5,0.1,0.7,0.3c0.2,0.2,0.3,0.4,0.3,0.7c0,0.3-0.1,0.5-0.3,0.7C325.3,121,325,121,324.8,121z"/>
							<path fill="#333333" d="M328.7,121c-0.3,0-0.5-0.1-0.7-0.3c-0.2-0.2-0.3-0.4-0.3-0.7c0-0.3,0.1-0.5,0.3-0.7
								c0.2-0.2,0.4-0.3,0.7-0.3c0.3,0,0.5,0.1,0.7,0.3c0.2,0.2,0.3,0.4,0.3,0.7c0,0.3-0.1,0.5-0.3,0.7C329.2,121,329,121,328.7,121
								z"/>
						</g>
						<rect x="99.8" y="100.4" display="none" fill="#FFFFFF" width="26.3" height="25.7"/>
						<g>
							<path fill="#FCFCFC" d="M178,373.1h-13.6v-19.5l-18.3-31.4h15.3l10.3,20.1l9.9-20.1h14.9L178,353.7V373.1z"/>
							<path fill="#FCFCFC" d="M232.8,353.5c0,12.6-8.5,20.7-21.7,20.7s-21.7-8.1-21.7-20.7c0-12.7,8.5-20.7,21.7-20.7
								S232.8,340.8,232.8,353.5z M218.9,353.5c0-7.9-2.9-11.7-7.8-11.7s-7.8,3.8-7.8,11.7c0,7.8,2.9,11.7,7.8,11.7
								S218.9,361.3,218.9,353.5z"/>
							<path fill="#FCFCFC" d="M278.9,373.1h-13.6v-6.6l-3.6,5.4c-2.5,1.5-5.4,2.3-9.1,2.3c-8.3,0-13.4-4.6-14.3-9.9
								c-0.3-2-0.4-4.3-0.4-7.4v-23h13.6v20c0,1.3,0.1,3.4,0.3,5.4c0.5,3.8,2.3,6,6.6,6s6.9-3.9,6.9-9.1v-22.3h13.6V373.1z"/>
							<path fill="#FCFCFC" d="M323,367.4l-1.7,4.1c-2.9,1.8-6.3,2.7-10,2.7c-6.6,0-12.9-4.1-12.9-11.6c0-8.4,8.2-13.6,21.8-13.6
								h2.6v-0.6c0-0.8,0-1.6-0.2-2.9c-0.2-2-1.9-3.8-4.8-3.8c-3.2,0-5,2-5.2,5.4l-12.8,0.1c0.1-9.2,8.5-14.4,18.6-14.4
								c12.8,0,17.1,5.5,17.7,12.7c0.2,2,0.2,4.3,0.2,6.7v11.1c0,2.9,0.2,5.6,0.8,9.9h-13.3L323,367.4z M322.9,359.1v-2.6
								c-6.1-0.4-10.5,1.1-10.5,5c0,2.4,1.9,3.7,4.6,3.7C319.7,365.2,322.9,363.2,322.9,359.1z"/>
							<path fill="#FCFCFC" d="M372.1,333v10.8c-10.2-0.7-13.9,3-13.9,14.9v14.4h-13.6v-39.3h13.6v8l2.9-5.5
								c2.2-2.4,5.4-3.5,7.9-3.5C370.3,332.7,371.1,332.8,372.1,333z"/>
							<path fill="#FCFCFC" d="M415.6,356.8h-28.1c0.7,6.6,3.6,8.4,7.5,8.4c3.9,0,6.2-1.9,6.7-4.9H415c-2.3,8.9-9.9,13.9-20.2,13.9
								c-11.6,0-20.8-6.7-20.8-20.6c0-11.5,8.1-20.9,21.5-20.9c13.4,0,20.2,10,20.2,20.2C415.8,354.1,415.7,355.4,415.6,356.8z
								 M387.9,348.7h13.7c-0.8-4.6-3.1-6.9-6.7-6.9C391.3,341.7,388.8,343.8,387.9,348.7z"/>
							<path fill="#FCFCFC" d="M477.3,373.1h-13.6v-5.7l-3,4.3c-2.3,1.6-6.2,2.4-10.3,2.4c-10.9,0-17.7-8.2-17.7-19.8
								c0-14,8.8-21.6,19.1-21.6c3.3,0,7.2,0.7,9.3,1.9l2.6,4.2V319h13.6V373.1z M463.7,354v-1.7c0-7.9-4.2-10.5-8.2-10.5
								c-5.3,0-8.9,3.9-8.9,11.9c0,7.4,3.8,11.5,8.5,11.5C460.1,365.2,463.7,362.2,463.7,354z"/>
							<path fill="#FCFCFC" d="M526.5,353.5c0,12.6-8.5,20.7-21.7,20.7c-13.2,0-21.7-8.1-21.7-20.7c0-12.7,8.5-20.7,21.7-20.7
								C518.1,332.7,526.5,340.8,526.5,353.5z M512.7,353.5c0-7.9-2.9-11.7-7.8-11.7s-7.8,3.8-7.8,11.7c0,7.8,2.9,11.7,7.8,11.7
								S512.7,361.3,512.7,353.5z"/>
							<path fill="#FCFCFC" d="M573.3,350.9v22.3h-13.6v-20c0-1.3,0-3.4-0.2-5.4c-0.3-3.8-2.4-6-6.5-6c-4.2,0-7.1,3.9-7.1,12.8v18.6
								h-13.6v-39.3H546v6.1l3.6-4.9c2.5-1.5,5.4-2.3,9.1-2.3c8.3,0,13.2,3.8,14.3,10.7C573.3,345.4,573.3,347.7,573.3,350.9z"/>
							<path fill="#FCFCFC" d="M603.8,367.4l-1.7,4.1c-2.9,1.8-6.3,2.7-10,2.7c-6.6,0-12.9-4.1-12.9-11.6c0-8.4,8.2-13.6,21.8-13.6
								h2.6v-0.6c0-0.8,0-1.6-0.2-2.9c-0.2-2-1.9-3.8-4.8-3.8c-3.2,0-5,2-5.2,5.4l-12.8,0.1c0.1-9.2,8.5-14.4,18.6-14.4
								c12.8,0,17.1,5.5,17.7,12.7c0.2,2,0.2,4.3,0.2,6.7v11.1c0,2.9,0.2,5.6,0.8,9.9h-13.3L603.8,367.4z M603.6,359.1v-2.6
								c-6.1-0.4-10.5,1.1-10.5,5c0,2.4,1.9,3.7,4.6,3.7S603.6,363.2,603.6,359.1z"/>
							<path fill="#FCFCFC" d="M641.7,356.8c0,1.3,0,2.8,0.1,3.8c0.3,4,1.6,4.9,8,4.6v8.3c-2.6,0.4-5.1,0.7-8,0.7
								c-10,0-13.1-3-13.5-9.1c-0.2-2.3-0.2-4.1-0.2-6.3v-16.4h-6.4v-8.3h6.4v-10.2h13.6v10.2h8.9v8.3h-8.9V356.8z"/>
							<path fill="#FCFCFC" d="M669.4,324.3c0,4-2.8,6.5-7,6.5c-4.2,0-7-2.5-7-6.5s2.8-6.5,7-6.5
								C666.6,317.8,669.4,320.3,669.4,324.3z M655.6,373.1v-39.3h13.6v39.3H655.6z"/>
							<path fill="#FCFCFC" d="M718.2,350.9v22.3h-13.6v-20c0-1.3,0-3.4-0.2-5.4c-0.3-3.8-2.4-6-6.5-6c-4.2,0-7.1,3.9-7.1,12.8v18.6
								h-13.6v-39.3h13.6v6.1l3.6-4.9c2.5-1.5,5.4-2.3,9.1-2.3c8.3,0,13.2,3.8,14.3,10.7C718.1,345.4,718.2,347.7,718.2,350.9z"/>
							<path fill="#FCFCFC" d="M768.3,363.1c0,2.4,0,5.5-0.1,7.6c-0.5,12.9-9.5,18.6-23.2,18.6c-12.1,0-19.4-4.8-20.4-13.8l-0.1-0.7
								h13.1l0.1,0.7c0.3,2.6,3.4,4.1,7.6,4.1c5.1,0,8.8-2.1,9.1-7.4c0.1-1.2,0.2-3,0.2-5.2v-1.1l-3,4.3c-2.3,1.6-5.4,2.4-9.5,2.4
								c-10.9,0-18.5-7.3-18.5-18.9c0-14,8.8-21,19.1-21c3.3,0,7.2,0.7,9.3,1.9l2.6,4.2v-5.1h13.6V363.1z M754.7,352.5v-0.2
								c0-7.9-4.2-10.5-8.2-10.5c-5.3,0-8.9,3-8.9,11.1c0,7.4,3.8,10.9,8.5,10.9C751.1,363.7,754.7,360.7,754.7,352.5z"/>
							<path fill="#FCFCFC" d="M816.2,373.1c-5.1,12.5-9.4,15.5-19,15.5c-2.2,0-3.8-0.1-5.7-0.4v-8.5c1.1,0.1,2.3,0.1,3.7,0.1
								c3.2,0,5.4-1,6.6-3.8l0.5-1.1l-16.7-41.1h15.1l8.3,28.8l8.2-28.8h14.9L816.2,373.1z"/>
							<path fill="#FCFCFC" d="M874.7,353.5c0,12.6-8.5,20.7-21.7,20.7c-13.2,0-21.7-8.1-21.7-20.7c0-12.7,8.5-20.7,21.7-20.7
								C866.3,332.7,874.7,340.8,874.7,353.5z M860.8,353.5c0-7.9-2.9-11.7-7.8-11.7c-4.8,0-7.8,3.8-7.8,11.7
								c0,7.8,2.9,11.7,7.8,11.7C857.9,365.2,860.8,361.3,860.8,353.5z"/>
							<path fill="#FCFCFC" d="M920.8,373.1h-13.6v-6.6l-3.6,5.4c-2.5,1.5-5.4,2.3-9.1,2.3c-8.3,0-13.4-4.6-14.3-9.9
								c-0.3-2-0.4-4.3-0.4-7.4v-23h13.6v20c0,1.3,0.1,3.4,0.3,5.4c0.5,3.8,2.3,6,6.6,6c4.3,0,6.9-3.9,6.9-9.1v-22.3h13.6V373.1z"/>
							<path fill="#FCFCFC" d="M956.4,333v10.8c-10.2-0.7-13.9,3-13.9,14.9v14.4h-13.6v-39.3h13.6v8l2.9-5.5
								c2.2-2.4,5.4-3.5,7.9-3.5C954.6,332.7,955.4,332.8,956.4,333z"/>
							<path fill="#FCFCFC" d="M1018.5,352.6c0,14-8.8,21.6-19.1,21.6c-3.3,0-7.2-0.7-9.3-1.9l-2.6-4.2v19.5h-13.6v-53.8h13.6v5.7
								l3-4.3c2.3-1.6,6.2-2.4,10.3-2.4C1011.7,332.7,1018.5,340.9,1018.5,352.6z M1004.6,353.2c0-7.4-3.8-11.5-8.5-11.5
								c-5,0-8.6,2.9-8.6,11.2v1.7c0,7.9,4.2,10.5,8.2,10.5C1001,365.2,1004.6,361.3,1004.6,353.2z"/>
							<path fill="#FCFCFC" d="M1051.9,333v10.8c-10.2-0.7-13.9,3-13.9,14.9v14.4h-13.6v-39.3h13.6v8l2.9-5.5
								c2.2-2.4,5.4-3.5,7.9-3.5C1050.1,332.7,1050.9,332.8,1051.9,333z"/>
							<path fill="#FCFCFC" d="M1097.2,353.5c0,12.6-8.5,20.7-21.7,20.7c-13.2,0-21.7-8.1-21.7-20.7c0-12.7,8.5-20.7,21.7-20.7
								C1088.7,332.7,1097.2,340.8,1097.2,353.5z M1083.3,353.5c0-7.9-2.9-11.7-7.8-11.7s-7.8,3.8-7.8,11.7c0,7.8,2.9,11.7,7.8,11.7
								S1083.3,361.3,1083.3,353.5z"/>
							<path fill="#FCFCFC" d="M1141.5,348.8h-13.1c-0.6-5.2-3.2-7.1-6.6-7.1c-4.5,0-7,3.8-7,11.3c0,8.4,2.6,12.1,7.2,12.1
								c3.1,0,5.7-2.2,6.4-6.5h13.4c-1.5,10.2-9.6,15.5-20.5,15.5c-11.6,0-20.3-7.3-20.3-20.3c0-13.6,9.4-21.1,21.2-21.1
								C1133.9,332.7,1141.1,340,1141.5,348.8z"/>
							<path fill="#FCFCFC" d="M1186.6,356.8h-28.1c0.7,6.6,3.6,8.4,7.5,8.4c3.9,0,6.2-1.9,6.7-4.9h13.4
								c-2.3,8.9-9.9,13.9-20.2,13.9c-11.6,0-20.8-6.7-20.8-20.6c0-11.5,8.1-20.9,21.5-20.9s20.2,10,20.2,20.2
								C1186.9,354.1,1186.8,355.4,1186.6,356.8z M1159,348.7h13.7c-0.8-4.6-3.1-6.9-6.7-6.9C1162.4,341.7,1159.9,343.8,1159,348.7z
								"/>
							<path fill="#FCFCFC" d="M1226.3,345.3h-13.4c-0.6-2.7-2-4.3-4.4-4.3c-1.9,0-3.2,1.2-3.2,2.9c0,2.2,1.8,3.7,9.5,5.5
								c7.3,1.8,12.5,4.9,12.5,12.5c0,8.4-8.1,12.3-17.8,12.3c-10.9,0-18.4-4.4-19.5-13.3h13.4c0.8,3,3.2,5,6,5c2.4,0,4.3-1,4.3-3
								c0-2.5-2.6-3.9-9.7-5.5c-7.7-1.8-12.3-5.2-12.3-11.9c0-7.8,6.9-12.7,17.7-12.7C1219.4,332.7,1225.2,338.1,1226.3,345.3z"/>
							<path fill="#FCFCFC" d="M1266.1,345.3h-13.4c-0.6-2.7-2-4.3-4.4-4.3c-1.9,0-3.2,1.2-3.2,2.9c0,2.2,1.8,3.7,9.5,5.5
								c7.3,1.8,12.5,4.9,12.5,12.5c0,8.4-8.1,12.3-17.8,12.3c-10.9,0-18.4-4.4-19.5-13.3h13.4c0.8,3,3.2,5,6,5c2.4,0,4.3-1,4.3-3
								c0-2.5-2.6-3.9-9.7-5.5c-7.7-1.8-12.3-5.2-12.3-11.9c0-7.8,6.9-12.7,17.7-12.7C1259.3,332.7,1265.1,338.1,1266.1,345.3z"/>
							<path fill="#FCFCFC" d="M398.2,651.1v13.8h-18.1v-13.8c-24.6-2.1-41.7-13.3-44.2-37.7h30.8c1.4,8.1,6.5,12.9,13.4,15.2v-28.3
								c-24.8-8.5-39-18.2-39-38.2c0-23.2,18.5-34.7,39-37.1v-14h18.1v14c26.6,2.7,39.5,17.5,41.9,37.8h-30.8
								c-1.1-7.1-4.2-12.6-11.1-15.2v27.2c29.5,9,42.2,19.8,42.2,40.8C440.4,636.8,422.7,648.8,398.2,651.1z M380.1,571.2v-24
								c-5.8,1.8-9.4,5.8-9.4,11.8C370.7,565.5,373.9,568.9,380.1,571.2z M398.2,629.2c7.2-1.4,11.1-5,11.1-11.8
								c0-5.3-2.5-9.4-11.1-12.7V629.2z"/>
							<path fill="#FCFCFC" d="M559.8,588c0,40.7-15.4,63.5-51.6,63.5s-51.6-22.8-51.6-63.5c0-40.8,15.4-63.5,51.6-63.5
								S559.8,547.1,559.8,588z M525.8,588c0-30.2-6.2-40.1-17.6-40.1c-11.4,0-17.6,9.9-17.6,40.1c0,30.1,6.2,40.1,17.6,40.1
								C519.6,628.1,525.8,618,525.8,588z"/>
							<path fill="#FCFCFC" d="M611.7,633.8c0,10.4-7.4,17.7-18.1,17.7c-10.7,0-18.1-7.2-18.1-17.7c0-10.4,7.4-17.7,18.1-17.7
								C604.2,616.1,611.7,623.3,611.7,633.8z"/>
							<path fill="#FCFCFC" d="M728,588c0,40.7-15.4,63.5-51.6,63.5c-36.2,0-51.6-22.8-51.6-63.5c0-40.8,15.4-63.5,51.6-63.5
								C712.6,524.5,728,547.1,728,588z M693.9,588c0-30.2-6.2-40.1-17.6-40.1c-11.4,0-17.6,9.9-17.6,40.1
								c0,30.1,6.2,40.1,17.6,40.1C687.7,628.1,693.9,618,693.9,588z"/>
							<path fill="#FCFCFC" d="M846.3,612.7c0,23.3-19.6,38.7-51.1,38.7c-31.7,0-50.2-15-52.7-39.4l-0.2-1.8h32.6l0.4,1.8
								c1.8,8.5,8,16.1,18.7,16.1c11.2,0,18.3-6.2,18.3-14.5c0-10.4-7.8-15.7-20.8-16.3l-4.9-0.2v-20.5l4.9-0.4
								c12-0.9,17.9-7.2,17.9-15.6c0-8-4.9-12.9-14-12.9c-9.6,0-13.6,7.6-14.3,15.6l-0.2,1.8h-32.6l0.2-1.8
								c2.2-20.5,17.8-38.9,50.2-38.9c30.6,0,44.7,15.2,44.7,32.5c0,14.3-7.4,23.9-23.7,27.8C837.4,588.1,846.3,597,846.3,612.7z"/>
						</g>
					</g>
					<linearGradient id="SVGID_9_" gradientUnits="userSpaceOnUse" x1="1170.2682" y1="564.8646" x2="1182.6761" y2="564.8646">
						<stop  offset="0" style="stop-color:#505050"/>
						<stop  offset="0.2562" style="stop-color:#6C6C6D"/>
						<stop  offset="0.5128" style="stop-color:#818182"/>
						<stop  offset="0.7636" style="stop-color:#8E8E8F"/>
						<stop  offset="1" style="stop-color:#929293"/>
					</linearGradient>
					<path clip-path="url(#SVGID_8_)" fill="url(#SVGID_9_)" d="M1182.7,560.4C1182.7,560.4,1182.7,560.4,1182.7,560.4
						c-0.3-0.3-0.5-0.5-0.8-0.7c-1.6-1.2-3.6-1.7-5.7-1.3c-3.9,0.7-6.5,4.4-5.8,8.2c0.4,2.1,1.6,3.7,3.3,4.7c-1-1-1.6-2.2-1.9-3.6
						c-0.7-3.8,1.9-7.5,5.8-8.2C1179.4,559.2,1181.2,559.6,1182.7,560.4L1182.7,560.4z"/>
					<linearGradient id="SVGID_10_" gradientUnits="userSpaceOnUse" x1="1182.6527" y1="558.402" x2="1191.599" y2="558.402">
						<stop  offset="0" style="stop-color:#505050"/>
						<stop  offset="0.2562" style="stop-color:#6C6C6D"/>
						<stop  offset="0.5128" style="stop-color:#818182"/>
						<stop  offset="0.7636" style="stop-color:#8E8E8F"/>
						<stop  offset="1" style="stop-color:#929293"/>
					</linearGradient>
					<path clip-path="url(#SVGID_8_)" fill="url(#SVGID_10_)" d="M1191.5,557.1c0.5,2.6-1.2,5-3.9,5.5c-1,0.2-2.1,0-3-0.4
						c-0.4-0.2-0.8-0.5-1.2-0.8c-0.3-0.3-0.6-0.6-0.8-1c0,0,0,0,0,0c0,0,0,0,0,0c0,0,0,0,0,0c1,0.7,2.3,1,3.6,0.8
						c2.6-0.5,4.4-2.9,3.9-5.5c-0.1-0.6-0.3-1.1-0.6-1.6C1190.5,554.8,1191.3,555.9,1191.5,557.1z"/>
					<linearGradient id="SVGID_11_" gradientUnits="userSpaceOnUse" x1="1175.9926" y1="562.8104" x2="1182.6621" y2="562.8104">
						<stop  offset="0" style="stop-color:#505050"/>
						<stop  offset="5.211312e-002" style="stop-color:#575757"/>
						<stop  offset="0.2978" style="stop-color:#747475"/>
						<stop  offset="0.5407" style="stop-color:#89898A"/>
						<stop  offset="0.7772" style="stop-color:#969697"/>
						<stop  offset="1" style="stop-color:#9A9A9B"/>
					</linearGradient>
					<path clip-path="url(#SVGID_8_)" fill="url(#SVGID_11_)" d="M1182.7,560.4C1182.7,560.4,1182.7,560.4,1182.7,560.4
						c-0.1-0.1-0.3-0.3-0.4-0.4c-0.8-0.6-1.9-0.9-3.1-0.7c-2.1,0.4-3.5,2.4-3.1,4.4c0.2,1.1,0.9,2,1.8,2.5c-0.5-0.5-0.9-1.2-1-2
						c-0.4-2.1,1-4,3.1-4.4C1180.9,559.8,1181.9,560,1182.7,560.4L1182.7,560.4z"/>
					<linearGradient id="SVGID_12_" gradientUnits="userSpaceOnUse" x1="1182.6655" y1="559.3541" x2="1187.4767" y2="559.3541">
						<stop  offset="0" style="stop-color:#505050"/>
						<stop  offset="5.211312e-002" style="stop-color:#575757"/>
						<stop  offset="0.2978" style="stop-color:#747475"/>
						<stop  offset="0.5407" style="stop-color:#89898A"/>
						<stop  offset="0.7772" style="stop-color:#969697"/>
						<stop  offset="1" style="stop-color:#9A9A9B"/>
					</linearGradient>
					<path clip-path="url(#SVGID_8_)" fill="url(#SVGID_12_)" d="M1187.4,558.7c0.3,1.4-0.7,2.7-2.1,2.9c-0.6,0.1-1.1,0-1.6-0.2
						c-0.2-0.1-0.4-0.3-0.6-0.4c-0.2-0.2-0.3-0.3-0.4-0.5c0,0,0,0,0,0c0,0,0,0,0,0c0,0,0,0,0,0c0,0,0,0,0,0c0.6,0.4,1.2,0.5,2,0.4
						c1.4-0.3,2.3-1.6,2.1-2.9c-0.1-0.3-0.2-0.6-0.3-0.9C1186.9,557.4,1187.3,558,1187.4,558.7z"/>
					<linearGradient id="SVGID_13_" gradientUnits="userSpaceOnUse" x1="1178.99" y1="561.7563" x2="1182.6675" y2="561.7563">
						<stop  offset="0" style="stop-color:#505050"/>
						<stop  offset="7.752937e-002" style="stop-color:#5B5B5B"/>
						<stop  offset="0.3167" style="stop-color:#787879"/>
						<stop  offset="0.553" style="stop-color:#8D8D8E"/>
						<stop  offset="0.7832" style="stop-color:#9A9A9B"/>
						<stop  offset="1" style="stop-color:#9E9E9F"/>
					</linearGradient>
					<path clip-path="url(#SVGID_8_)" fill="url(#SVGID_13_)" d="M1182.7,560.4C1182.7,560.4,1182.7,560.4,1182.7,560.4
						c-0.1-0.1-0.2-0.1-0.2-0.2c-0.5-0.3-1.1-0.5-1.7-0.4c-1.2,0.2-1.9,1.3-1.7,2.4c0.1,0.6,0.5,1.1,1,1.4c-0.3-0.3-0.5-0.7-0.6-1.1
						c-0.2-1.1,0.6-2.2,1.7-2.4C1181.7,560.1,1182.2,560.2,1182.7,560.4L1182.7,560.4z"/>
					<linearGradient id="SVGID_14_" gradientUnits="userSpaceOnUse" x1="1182.6887" y1="559.8696" x2="1185.3416" y2="559.8696">
						<stop  offset="0" style="stop-color:#505050"/>
						<stop  offset="7.752937e-002" style="stop-color:#5B5B5B"/>
						<stop  offset="0.3167" style="stop-color:#787879"/>
						<stop  offset="0.553" style="stop-color:#8D8D8E"/>
						<stop  offset="0.7832" style="stop-color:#9A9A9B"/>
						<stop  offset="1" style="stop-color:#9E9E9F"/>
					</linearGradient>
					<path clip-path="url(#SVGID_8_)" fill="url(#SVGID_14_)" d="M1185.3,559.5c0.1,0.8-0.4,1.5-1.1,1.6c-0.3,0.1-0.6,0-0.9-0.1
						c-0.1-0.1-0.2-0.1-0.4-0.2c-0.1-0.1-0.2-0.2-0.2-0.3c0,0,0,0,0,0c0,0,0,0,0,0c0,0,0,0,0,0c0,0,0,0,0,0c0.3,0.2,0.7,0.3,1.1,0.2
						c0.8-0.1,1.3-0.9,1.1-1.6c0-0.2-0.1-0.3-0.2-0.5C1185,558.8,1185.2,559.1,1185.3,559.5z"/>
					<g clip-path="url(#SVGID_8_)">
						<linearGradient id="SVGID_15_" gradientUnits="userSpaceOnUse" x1="92.1088" y1="119.4022" x2="112.4541" y2="119.4022">
							<stop  offset="0" style="stop-color:#505050"/>
							<stop  offset="0.2562" style="stop-color:#6C6C6D"/>
							<stop  offset="0.5128" style="stop-color:#818182"/>
							<stop  offset="0.7636" style="stop-color:#8E8E8F"/>
							<stop  offset="1" style="stop-color:#929293"/>
						</linearGradient>
						<path fill="url(#SVGID_15_)" d="M112.4,112.1C112.4,112.1,112.4,112.1,112.4,112.1c-0.4-0.4-0.8-0.8-1.3-1.1
							c-2.6-1.9-5.9-2.8-9.3-2.2c-6.4,1.2-10.7,7.2-9.5,13.5c0.6,3.4,2.7,6.1,5.5,7.8c-1.6-1.6-2.7-3.6-3.1-6
							c-1.2-6.3,3.1-12.3,9.5-13.5C107.1,110.2,110.1,110.7,112.4,112.1L112.4,112.1z"/>
						<linearGradient id="SVGID_16_" gradientUnits="userSpaceOnUse" x1="112.4156" y1="108.8057" x2="127.0846" y2="108.8057">
							<stop  offset="0" style="stop-color:#505050"/>
							<stop  offset="0.2562" style="stop-color:#6C6C6D"/>
							<stop  offset="0.5128" style="stop-color:#818182"/>
							<stop  offset="0.7636" style="stop-color:#8E8E8F"/>
							<stop  offset="1" style="stop-color:#929293"/>
						</linearGradient>
						<path fill="url(#SVGID_16_)" d="M127,106.7c0.8,4.2-2,8.2-6.3,9c-1.7,0.3-3.4,0.1-4.9-0.6c-0.7-0.3-1.4-0.8-1.9-1.3
							c-0.5-0.5-1-1-1.4-1.6c0,0,0,0,0,0c0,0,0,0,0,0c0,0,0,0,0,0c1.7,1.1,3.8,1.7,6,1.3c4.3-0.8,7.1-4.8,6.3-9
							c-0.2-1-0.5-1.8-1-2.6C125.4,102.9,126.6,104.6,127,106.7z"/>
						<linearGradient id="SVGID_17_" gradientUnits="userSpaceOnUse" x1="101.4951" y1="116.0341" x2="112.431" y2="116.0341">
							<stop  offset="0" style="stop-color:#505050"/>
							<stop  offset="5.211312e-002" style="stop-color:#575757"/>
							<stop  offset="0.2978" style="stop-color:#747475"/>
							<stop  offset="0.5407" style="stop-color:#89898A"/>
							<stop  offset="0.7772" style="stop-color:#969697"/>
							<stop  offset="1" style="stop-color:#9A9A9B"/>
						</linearGradient>
						<path fill="url(#SVGID_17_)" d="M112.4,112.1C112.4,112.1,112.4,112.1,112.4,112.1c-0.2-0.2-0.5-0.4-0.7-0.6
							c-1.4-1-3.2-1.5-5-1.2c-3.5,0.6-5.8,3.9-5.1,7.3c0.3,1.8,1.5,3.3,2.9,4.2c-0.8-0.9-1.5-1.9-1.7-3.2c-0.6-3.4,1.6-6.6,5.1-7.3
							C109.6,111.1,111.1,111.4,112.4,112.1L112.4,112.1z"/>
						<linearGradient id="SVGID_18_" gradientUnits="userSpaceOnUse" x1="112.4365" y1="110.3669" x2="120.3254" y2="110.3669">
							<stop  offset="0" style="stop-color:#505050"/>
							<stop  offset="5.211312e-002" style="stop-color:#575757"/>
							<stop  offset="0.2978" style="stop-color:#747475"/>
							<stop  offset="0.5407" style="stop-color:#89898A"/>
							<stop  offset="0.7772" style="stop-color:#969697"/>
							<stop  offset="1" style="stop-color:#9A9A9B"/>
						</linearGradient>
						<path fill="url(#SVGID_18_)" d="M120.3,109.2c0.4,2.3-1.1,4.4-3.4,4.8c-0.9,0.2-1.8,0-2.6-0.3c-0.4-0.2-0.7-0.4-1-0.7
							c-0.3-0.3-0.5-0.5-0.7-0.9c0,0,0,0,0,0c0,0,0,0,0,0c0,0,0,0,0,0c0,0,0,0,0,0c0.9,0.6,2,0.9,3.2,0.7c2.3-0.4,3.8-2.6,3.4-4.8
							c-0.1-0.5-0.3-1-0.5-1.4C119.4,107.2,120,108.1,120.3,109.2z"/>
						<linearGradient id="SVGID_19_" gradientUnits="userSpaceOnUse" x1="106.4099" y1="114.3058" x2="112.4398" y2="114.3058">
							<stop  offset="0" style="stop-color:#505050"/>
							<stop  offset="7.752937e-002" style="stop-color:#5B5B5B"/>
							<stop  offset="0.3167" style="stop-color:#787879"/>
							<stop  offset="0.553" style="stop-color:#8D8D8E"/>
							<stop  offset="0.7832" style="stop-color:#9A9A9B"/>
							<stop  offset="1" style="stop-color:#9E9E9F"/>
						</linearGradient>
						<path fill="url(#SVGID_19_)" d="M112.4,112.2C112.4,112.2,112.4,112.1,112.4,112.2c-0.1-0.1-0.3-0.2-0.4-0.3
							c-0.8-0.6-1.8-0.8-2.8-0.6c-1.9,0.3-3.2,2.1-2.8,4c0.2,1,0.8,1.8,1.6,2.3c-0.5-0.5-0.8-1.1-0.9-1.8c-0.4-1.9,0.9-3.7,2.8-4
							C110.9,111.6,111.7,111.7,112.4,112.2L112.4,112.2z"/>
						<linearGradient id="SVGID_20_" gradientUnits="userSpaceOnUse" x1="112.4746" y1="111.2122" x2="116.8243" y2="111.2122">
							<stop  offset="0" style="stop-color:#505050"/>
							<stop  offset="7.752937e-002" style="stop-color:#5B5B5B"/>
							<stop  offset="0.3167" style="stop-color:#787879"/>
							<stop  offset="0.553" style="stop-color:#8D8D8E"/>
							<stop  offset="0.7832" style="stop-color:#9A9A9B"/>
							<stop  offset="1" style="stop-color:#9E9E9F"/>
						</linearGradient>
						<path fill="url(#SVGID_20_)" d="M116.8,110.6c0.2,1.2-0.6,2.4-1.9,2.7c-0.5,0.1-1,0-1.4-0.2c-0.2-0.1-0.4-0.2-0.6-0.4
							c-0.2-0.1-0.3-0.3-0.4-0.5c0,0,0,0,0,0c0,0,0,0,0,0c0,0,0,0,0,0c0,0,0,0,0,0c0.5,0.3,1.1,0.5,1.8,0.4c1.3-0.2,2.1-1.4,1.9-2.7
							c-0.1-0.3-0.2-0.5-0.3-0.8C116.3,109.5,116.7,110,116.8,110.6z"/>
					</g>
				</g>
			</g>
		</g>
	</g>
</g>
<g id="Layer_1" display="none">
	<path display="inline" fill="#E6AF78" d="M105.5,222.5v39.8c0,6.1-3.9,11.4-9.7,13.2l-60.4,18.6c-11.6,3.6-19.5,14.3-19.5,26.4
		v100.3c0,19,15.4,34.5,34.5,34.5h17.2h181l-18.1-173.1c0,0-18.1-3.7-23.5-7.3c-5.4-3.6-6.1-11.7-6.1-11.7l0.1-40.6H105.5z"/>
	<path display="inline" fill="#E6AF78" d="M227.1,162.2h-1.3l-3-60.3H85.9v60.3h-5.4c-7.1,0-12.9,5.8-12.9,12.9v17.2
		c0,7.1,5.8,12.9,12.9,12.9h8.2l1.4,8.8c1.1,6.6,4.5,12.6,9.6,16.8l27.7,23.1c3.7,3.1,8.4,4.8,13.2,4.8H167c4.8,0,9.5-1.7,13.2-4.8
		l27.7-23.1c5.1-4.3,8.5-10.2,9.6-16.8l1.4-8.8h8.2c7.1,0,12.9-5.8,12.9-12.9v-17.2C240,168,234.2,162.2,227.1,162.2z"/>
	<path display="inline" fill="#E6AF78" d="M222.8,101.8h-86.2H85.9v60.3h-5.4c-7.1,0-12.9,5.8-12.9,12.9v17.2
		c0,7.1,5.8,12.9,12.9,12.9h8.2l1.4,8.8c1.1,6.6,23.8,7.7,28.9,12l17.6-20.5c4.9,26.2,0.2-5,20.7,10.5s35.1,27.8,35.1,27.8
		c-1.6-1.6,0,0-25.3,6.3c-20.5-16.5-30.5-39.1-30.5-44.6v-52c0-4.8,3.9-8.6,8.6-8.6l0,0c0,0,8.6,0,12.1-4.1
		c5.3,2.7,11.1,4.1,17.2,4.1c6.1,0,12-1.5,17.2-4.1c5.3,2.7,11.1,4.1,17.2,4.1c0.9,0,1.7-0.1,2.6-0.2l13.4,0L222.8,101.8z"/>
	<path display="inline" fill="#E6AF78" d="M224,412.2h88.5c14.3,0,25.9,11.6,25.9,25.9v17.2H224V412.2z"/>
	<path display="inline" fill="#F5DCB4" d="M481.4,489.8H260.7l16.6-34.5h204.1c4.8,0,8.6,3.9,8.6,8.6v17.2
		C490,485.9,486.1,489.8,481.4,489.8z"/>
	<rect x="208" y="412.2" display="inline" fill="#00C3F0" width="87.2" height="42.8"/>
	<path display="inline" fill="#59D8FF" d="M153.8,326c-33.4,1.2-62.8-17.5-79.7-43.8l-38.7,11.9c-11.6,3.6-19.5,14.3-19.5,26.4V482
		c0,19,15.4,14.5,34.5,14.5h17.2c0,0,134.3,0,166.6,0c23.7,0,40,1.8,43.5-15.8c0,0,0-118.8,0-162.4c0-20.6-9-25.5-29-31.7
		c-3.2-1-11-2.8-11-2.8l-7.1-1.7C207,315.3,201.3,324.3,153.8,326z"/>
	<g display="inline">
		<path fill="#00C3F0" d="M153.8,326L153.8,326c-33.4,0-62.8-17.5-79.7-43.8L57,287.4c19.4,33.3,55.4,55.7,96.8,55.8l0,0V326z"/>
	</g>
	<path display="inline" fill="#694B4B" d="M257.2,100.1c0-9.6-6.5-17.5-15.3-19.9c1-2.4,1.5-5,1.5-7.7c0-11.4-9.3-20.7-20.7-20.7
		c-0.4,0-0.8,0.1-1.2,0.1c-2.8-8.1-10.4-13.9-19.5-13.9c-2.2,0-4.3,0.4-6.3,1.1c-4.4-4.9-10.7-8-17.8-8c-1.8,0-3.6,0.2-5.3,0.6
		c-4.9-4.6-11.5-7.5-18.8-7.5c-7.3,0-13.9,2.9-18.8,7.5c-1.7-0.4-3.5-0.6-5.3-0.6c-6.6,0-12.5,2.6-16.9,6.9c-0.1,0-0.2,0-0.4,0
		c-9,0-16.6,5.8-19.5,13.9c-0.4,0-0.8-0.1-1.2-0.1C80.3,51.8,71,61.1,71,72.5c0,2.7,0.6,5.3,1.5,7.7c-8.8,2.4-15.3,10.3-15.3,19.9
		c0,5.3,2.1,10.1,5.4,13.8c-3.3,3.7-5.4,8.5-5.4,13.8c0,7.7,4.2,14.3,10.4,17.8c0.3,9.3,7.9,16.7,17.2,16.7h7.5
		c3.4,0,6.2-2.4,6.8-5.8l4.8-28.9c0.5,0,1,0.2,1.5,0.2c7.2,0,13.5-3.7,17.2-9.3c3.7,5.6,10,9.3,17.2,9.3s13.5-3.7,17.2-9.3
		c3.7,5.6,10,9.3,17.2,9.3s13.5-3.7,17.2-9.3c3.7,5.6,10,9.3,17.2,9.3c0.5,0,1-0.1,1.5-0.2l4.8,28.9c0.6,3.3,3.4,5.8,6.8,5.8h9.3
		c9.5,0,17.2-7.7,17.2-17.2c0-0.2,0-0.3-0.1-0.5c5.2-3.7,8.7-9.8,8.7-16.7c0-5.3-2.1-10.1-5.4-13.8
		C255.2,110.2,257.2,105.4,257.2,100.1z"/>
	<path display="inline" fill="#694B4B" d="M76.4,160.4c0,7.8,5,14.3,11.9,16.3c-0.7,1.9-1.2,4.1-1.2,6.3c0,9.4,7.2,16.9,16,16.9
		c0.3,0,0.6-0.1,1-0.1c2.2,6.6,8.1,11.4,15.1,11.4c1.7,0,3.4-0.3,4.9-0.9c3.4,4,8.3,6.5,13.8,6.5c1.4,0,2.8-0.2,4.1-0.5
		c3.8,3.8,8.9,6.2,14.6,6.2c5.7,0,10.8-2.4,14.6-6.2c1.3,0.3,2.7,0.5,4.1,0.5c5.1,0,9.7-2.2,13.1-5.7c0.1,0,0.2,0,0.3,0
		c7,0,12.9-4.8,15.1-11.4c0.3,0,0.6,0.1,1,0.1c8.9,0,16-7.6,16-16.9c0-2.2-0.4-4.3-1.2-6.3c6.8-1.9,11.9-8.5,11.9-16.3
		c0-4.4-1.6-8.3-4.2-11.3c2.6-3,4.2-6.9,4.2-11.3c0-6.3-3.3-11.7-8.1-14.6c-0.2-7.6-6.1-13.6-13.3-13.6h-5.8c-2.6,0-4.8,2-5.3,4.7
		l-3.7-4.9c-0.4,0-4.2,9.1-4.6,9.1c-5.6,0-7.1-6.2-9.9-1.6c-2.9-4.6-7.8-7.6-13.4-7.6c-5.6,0-10.5,3-13.4,7.6
		c-2.9-4.6-7.8-7.6-13.4-7.6s-10.5,3-13.4,7.6c-2.9-4.6-7.8-7.6-13.4-7.6c-0.4,0-6.2-15.3-2.5,8.4l-2.4-3.4
		c-0.4-2.7-2.7-4.7-5.3-4.7h-7.2c-7.4,0-13.4,6.3-13.4,14.1c0,0.1,0,0.3,0,0.4c-4.1,3.1-6.7,8-6.7,13.7c0,4.4,1.6,8.3,4.2,11.3
		C78,152.1,76.4,156.1,76.4,160.4z"/>
	<path display="inline" fill="#5A4146" d="M143.3,99.9c0,0-8.5,2.3-8.5-6.7c0-5.3,2.1-10.1,5.4-13.8c-3.3-3.7-5.4-8.5-5.4-13.8
		c0-9.6,6.5-17.5,15.3-19.9c-1-2.4-1.5-5-1.5-7.7c0-5.3,2.1-10.1,5.4-13.8c-0.1,0-0.1,0-0.2,0c-7.3,0-13.9,2.9-18.8,7.5
		c-1.7-0.4-3.5-0.6-5.3-0.6c-6.6,0-12.5,2.6-16.9,6.9c-0.1,0-0.2,0-0.4,0c-9,0-16.6,5.8-19.5,13.9c-0.4,0-0.8-0.1-1.2-0.1
		C80.3,51.8,71,61.1,71,72.5c0,2.7,0.6,5.3,1.5,7.7c-8.8,2.4-15.3,10.3-15.3,19.9c0,5.3,2.1,10.1,5.4,13.8
		c-3.3,3.7-5.4,8.5-5.4,13.8c0,7.7,4.2,14.3,10.4,17.8c0.3,9.3,7.9,16.7,17.2,16.7h7.5c3.4,0,6.2-2.4,6.8-5.8l4.8-28.9
		c0.5,0,1,0.2,1.5,0.2c7.2,0,13.5-3.7,17.2-9.3c3.7,5.6,10,9.3,17.2,9.3c4.8,0,15.4,0.3,18.9-2.4c-3.6-0.6-15.9-7.4-15.9-11.1
		C140.6,109.4,143.3,99.9,143.3,99.9z"/>
	<path display="inline" fill="#5A4146" d="M147.6,121c-9,4.3,0.3,6.7-7.1-0.8c-4.4-4.4-2.7-11.8-3-17.6c-5.7-0.3-11.4-2.6-15.8-7
		c-7.9-7.9-9-19.8-3.7-29.1c-2.8-1.2-5.3-2.9-7.6-5.1c-4.4-4.4-6.6-10.1-6.9-15.8c-0.1,0.1-0.1,0.1-0.2,0.1c-6,6-9.1,13.8-9.4,21.7
		c-1.7,1.1-3.4,2.3-4.9,3.8c-5.4,5.4-8.2,12.5-8.3,19.6c-0.1,0.1-0.2,0.2-0.3,0.3c-7.5,7.4-9,18.5-4.6,27.5
		c-0.4,0.3-0.8,0.6-1.1,0.9c-9.5,9.4-9.5,24.7-0.1,34.1c2.2,2.3,4.8,3.9,7.6,5.1c-5.3,9.2-4.2,21.2,3.7,29.1c4.4,4.4,10,6.7,15.8,7
		c0.3,5.8,2.5,11.4,6.9,15.8c6.3,6.3,15.2,8.3,23.3,6.2c7.9,7.4,20.2,7.3,27.9-0.4l6.2-6.2c2.8-2.8,3.2-7.2,0.9-10.4l-19.8-27.8
		c0.5-0.4,1-0.7,1.4-1.1c6-5.9,8.2-14.2,6.6-21.9c7.7,1.6,1.9,0.4,7.9-5.5c3.9-3.9-4.2-18.5-4.2-18.5l0,0
		C158.5,124.9,147.9,121.4,147.6,121z"/>
	<g display="inline">
		<path fill="#00C3F0" d="M150.8,343.2L150.8,343.2c41.3,0,77.4-23.5,96.8-56.8l-17.1-4.2c-16.9,26.3-46.3,43.8-79.7,43.8
			c-32.2,0,0,0,0,0V343.2z"/>
	</g>
</g>
</svg>
