<?xml version="1.0" encoding="utf-8"?>
<!-- Generator: Adobe Illustrator 18.1.1, SVG Export Plug-In . SVG Version: 6.00 Build 0)  -->
<svg version="1.1" id="Layer_1" xmlns="http://www.w3.org/2000/svg" xmlns:xlink="http://www.w3.org/1999/xlink" x="0px" y="0px"
	 viewBox="0 0 500 500" enable-background="new 0 0 500 500" xml:space="preserve">
<g>
	<g>
		<path fill="#333E48" d="M251.9,122c-3.4,0-6.1-2.7-6.1-6.1V67.8c0-3.4,2.7-6.1,6.1-6.1c3.4,0,6.1,2.7,6.1,6.1v48.1
			C258,119.3,255.3,122,251.9,122z"/>
		<path fill="#333E48" d="M220.5,122c-3.4,0-6.1-2.7-6.1-6.1V67.8c0-3.4,2.7-6.1,6.1-6.1c3.4,0,6.1,2.7,6.1,6.1v48.1
			C226.6,119.3,223.9,122,220.5,122z"/>
		<path fill="#333E48" d="M189.1,122c-3.4,0-6.1-2.7-6.1-6.1V67.8c0-3.4,2.7-6.1,6.1-6.1c3.4,0,6.1,2.7,6.1,6.1v48.1
			C195.2,119.3,192.5,122,189.1,122z"/>
		<path fill="#333E48" d="M157.7,122c-3.4,0-6.1-2.7-6.1-6.1V67.8c0-3.4,2.7-6.1,6.1-6.1c3.4,0,6.1,2.7,6.1,6.1v48.1
			C163.8,119.3,161,122,157.7,122z"/>
		<path fill="#333E48" d="M283.4,122c-3.4,0-6.1-2.7-6.1-6.1V67.8c0-3.4,2.7-6.1,6.1-6.1s6.1,2.7,6.1,6.1v48.1
			C289.5,119.3,286.7,122,283.4,122z"/>
		<path fill="#333E48" d="M314.8,122c-3.4,0-6.1-2.7-6.1-6.1V67.8c0-3.4,2.7-6.1,6.1-6.1s6.1,2.7,6.1,6.1v48.1
			C320.9,119.3,318.1,122,314.8,122z"/>
		<path fill="#333E48" d="M346.2,122c-3.4,0-6.1-2.7-6.1-6.1V67.8c0-3.4,2.7-6.1,6.1-6.1s6.1,2.7,6.1,6.1v48.1
			C352.3,119.3,349.6,122,346.2,122z"/>
	</g>
	<g>
		<path fill="#333E48" d="M251.9,444.4c-3.4,0-6.1-2.7-6.1-6.1v-48.1c0-3.4,2.7-6.1,6.1-6.1c3.4,0,6.1,2.7,6.1,6.1v48.1
			C258,441.6,255.3,444.4,251.9,444.4z"/>
		<path fill="#333E48" d="M283.4,444.4c-3.4,0-6.1-2.7-6.1-6.1v-48.1c0-3.4,2.7-6.1,6.1-6.1s6.1,2.7,6.1,6.1v48.1
			C289.5,441.6,286.7,444.4,283.4,444.4z"/>
		<path fill="#333E48" d="M314.8,444.4c-3.4,0-6.1-2.7-6.1-6.1v-48.1c0-3.4,2.7-6.1,6.1-6.1s6.1,2.7,6.1,6.1v48.1
			C320.9,441.6,318.1,444.4,314.8,444.4z"/>
		<path fill="#333E48" d="M346.2,444.4c-3.4,0-6.1-2.7-6.1-6.1v-48.1c0-3.4,2.7-6.1,6.1-6.1s6.1,2.7,6.1,6.1v48.1
			C352.3,441.6,349.6,444.4,346.2,444.4z"/>
		<path fill="#333E48" d="M220.5,444.4c-3.4,0-6.1-2.7-6.1-6.1v-48.1c0-3.4,2.7-6.1,6.1-6.1c3.4,0,6.1,2.7,6.1,6.1v48.1
			C226.6,441.6,223.9,444.4,220.5,444.4z"/>
		<path fill="#333E48" d="M189.1,444.4c-3.4,0-6.1-2.7-6.1-6.1v-48.1c0-3.4,2.7-6.1,6.1-6.1c3.4,0,6.1,2.7,6.1,6.1v48.1
			C195.2,441.6,192.5,444.4,189.1,444.4z"/>
		<path fill="#333E48" d="M157.7,444.4c-3.4,0-6.1-2.7-6.1-6.1v-48.1c0-3.4,2.7-6.1,6.1-6.1c3.4,0,6.1,2.7,6.1,6.1v48.1
			C163.8,441.6,161,444.4,157.7,444.4z"/>
	</g>
	<g>
		<path fill="#333E48" d="M438.2,259.1h-48.1c-3.4,0-6.1-2.7-6.1-6.1s2.7-6.1,6.1-6.1h48.1c3.4,0,6.1,2.7,6.1,6.1
			C444.3,256.4,441.6,259.1,438.2,259.1z"/>
		<path fill="#333E48" d="M438.2,227.7h-48.1c-3.4,0-6.1-2.7-6.1-6.1s2.7-6.1,6.1-6.1h48.1c3.4,0,6.1,2.7,6.1,6.1
			C444.3,225,441.6,227.7,438.2,227.7z"/>
		<path fill="#333E48" d="M438.2,196.3h-48.1c-3.4,0-6.1-2.7-6.1-6.1c0-3.4,2.7-6.1,6.1-6.1h48.1c3.4,0,6.1,2.7,6.1,6.1
			S441.6,196.3,438.2,196.3z"/>
		<path fill="#333E48" d="M438.2,164.9h-48.1c-3.4,0-6.1-2.7-6.1-6.1c0-3.4,2.7-6.1,6.1-6.1h48.1c3.4,0,6.1,2.7,6.1,6.1
			S441.6,164.9,438.2,164.9z"/>
		<path fill="#333E48" d="M438.2,290.6h-48.1c-3.4,0-6.1-2.7-6.1-6.1s2.7-6.1,6.1-6.1h48.1c3.4,0,6.1,2.7,6.1,6.1
			C444.3,287.8,441.6,290.6,438.2,290.6z"/>
		<path fill="#333E48" d="M438.2,322h-48.1c-3.4,0-6.1-2.7-6.1-6.1s2.7-6.1,6.1-6.1h48.1c3.4,0,6.1,2.7,6.1,6.1
			C444.3,319.3,441.6,322,438.2,322z"/>
		<path fill="#333E48" d="M438.2,353.4h-48.1c-3.4,0-6.1-2.7-6.1-6.1s2.7-6.1,6.1-6.1h48.1c3.4,0,6.1,2.7,6.1,6.1
			C444.3,350.7,441.6,353.4,438.2,353.4z"/>
	</g>
	<path display="none" fill="#009638" d="M385.5,119.5c0-9.1-7.5-16.6-16.6-16.6h-267c-9.1,0-16.6,7.5-16.6,16.6v267
		c0,9.1,7.5,16.6,16.6,16.6h267c9.2,0,16.6-7.5,16.6-16.6V119.5z"/>
	<g>
		<path fill="#333E48" d="M110.5,259.1H62.4c-3.4,0-6.1-2.7-6.1-6.1s2.7-6.1,6.1-6.1h48.1c3.4,0,6.1,2.7,6.1,6.1
			C116.6,256.4,113.9,259.1,110.5,259.1z"/>
		<path fill="#333E48" d="M110.5,290.6H62.4c-3.4,0-6.1-2.7-6.1-6.1s2.7-6.1,6.1-6.1h48.1c3.4,0,6.1,2.7,6.1,6.1
			C116.6,287.8,113.9,290.6,110.5,290.6z"/>
		<path fill="#333E48" d="M110.5,322H62.4c-3.4,0-6.1-2.7-6.1-6.1s2.7-6.1,6.1-6.1h48.1c3.4,0,6.1,2.7,6.1,6.1S113.9,322,110.5,322z
			"/>
		<path fill="#333E48" d="M110.5,353.4H62.4c-3.4,0-6.1-2.7-6.1-6.1s2.7-6.1,6.1-6.1h48.1c3.4,0,6.1,2.7,6.1,6.1
			C116.6,350.7,113.9,353.4,110.5,353.4z"/>
		<path fill="#333E48" d="M110.5,227.7H62.4c-3.4,0-6.1-2.7-6.1-6.1s2.7-6.1,6.1-6.1h48.1c3.4,0,6.1,2.7,6.1,6.1
			S113.9,227.7,110.5,227.7z"/>
		<path fill="#333E48" d="M110.5,196.3H62.4c-3.4,0-6.1-2.7-6.1-6.1c0-3.4,2.7-6.1,6.1-6.1h48.1c3.4,0,6.1,2.7,6.1,6.1
			S113.9,196.3,110.5,196.3z"/>
		<path fill="#333E48" d="M110.5,164.9H62.4c-3.4,0-6.1-2.7-6.1-6.1c0-3.4,2.7-6.1,6.1-6.1h48.1c3.4,0,6.1,2.7,6.1,6.1
			S113.9,164.9,110.5,164.9z"/>
	</g>
	<path fill="#489354" d="M406.5,119.5c0-9.1-7.5-16.6-16.6-16.6h-267c-9.1,0-16.6,7.5-16.6,16.6v267c0,9.1,7.5,16.6,16.6,16.6h267
		c9.1,0,16.6-7.5,16.6-16.6V119.5L406.5,119.5z"/>
	<path fill="#C3C6C8" d="M367.1,167.6c0-12.2-10-22.3-22.1-22.3H169.6c-12.2,0-22.1,10-22.1,22.3v167c0,12.2,10,22.3,22.1,22.3
		h175.4c12.2,0,22.1-10,22.1-22.3V167.6L367.1,167.6z"/>
	<rect x="384.1" y="137.7" fill="#FFC843" width="22.4" height="142.4"/>
</g>
<path fill="#333E48" stroke="#C3C6C8" stroke-width="14" stroke-miterlimit="10" d="M201.7,281.2h36.2v54.2c0,4,2.6,7.6,6.5,8.7
	c0.8,0.2,1.7,0.4,2.5,0.4c3,0,5.9-1.5,7.6-4.2l63.3-99.4c1.8-2.8,1.9-6.3,0.3-9.2s-4.6-4.7-7.9-4.7H274v-54.2c0-4-2.6-7.6-6.5-8.7
	c-3.8-1.1-8,0.4-10.2,3.8L194,267.3c-1.8,2.8-1.9,6.3-0.3,9.2C195.4,279.4,198.4,281.2,201.7,281.2z"/>
<path fill="#FFCA28" d="M255.9,203.7V236c0,5,4,9,9,9h28.7l-37.8,59.4v-32.2c0-5-4-9-9-9h-28.7L255.9,203.7z"/>
</svg>
