<?xml version="1.0" encoding="utf-8"?>
<!-- Generator: Adobe Illustrator 18.1.1, SVG Export Plug-In . SVG Version: 6.00 Build 0)  -->
<svg version="1.1" id="Capa_1" xmlns="http://www.w3.org/2000/svg" xmlns:xlink="http://www.w3.org/1999/xlink" x="0px" y="0px"
	 viewBox="0 0 500 500" enable-background="new 0 0 500 500" xml:space="preserve">
<g>
	<defs>
		<polygon id="SVGID_1_" points="88.2,500 88.2,373 52,373 52,350 210,350 210,342 52,342 52,290.9 80,290.9 92,290.9 137,290.9 
			137,277 183,277 183.3,259 137,259 137,250 127,250 120.8,250 111.9,250 111.9,223 136.2,223 164,223 188,223 188,203 169.2,203 
			169.2,191 304,191 304,174.1 169.2,174 169.2,160.6 181,160.6 196,160.6 222.7,160.6 250,160.6 250,108.3 342,108 342,100 
			250,100 250,89 296,89 296,74 257.3,74 257.3,50.5 304.5,50.5 304.5,44.2 257.3,44.2 257.3,-9 523,-9 523,543 88.2,543 		"/>
	</defs>
	<clipPath id="SVGID_2_">
		<use xlink:href="#SVGID_1_"  overflow="visible"/>
	</clipPath>
	<circle clip-path="url(#SVGID_2_)" fill="#FFB125" cx="250" cy="250" r="250"/>
	<path clip-path="url(#SVGID_2_)" fill="#FF901D" d="M250,0c-7.8,0-15.5,0.4-23.2,1.1C354.1,12.8,453.7,119.7,453.7,250
		s-99.6,237.2-226.8,248.9c7.6,0.7,15.3,1.1,23.2,1.1c138.1,0,250-111.9,250-250S388.1,0,250,0z"/>
	<g clip-path="url(#SVGID_2_)">
		<circle fill="#F4D451" cx="250" cy="250" r="195.3"/>
		<path fill="#FEE570" d="M250,40.8c-4,0-7.3-3.3-7.3-7.3V21.7c0-4,3.3-7.3,7.3-7.3s7.3,3.3,7.3,7.3v11.8
			C257.3,37.5,254,40.8,250,40.8z"/>
		<path fill="#FEE570" d="M250,485.6c-4,0-7.3-3.3-7.3-7.3v-11.8c0-4,3.3-7.3,7.3-7.3s7.3,3.3,7.3,7.3v11.8
			C257.3,482.3,254,485.6,250,485.6z"/>
		<path fill="#FEE570" d="M478.3,257.3h-11.8c-4,0-7.3-3.3-7.3-7.3s3.3-7.3,7.3-7.3h11.8c4,0,7.3,3.3,7.3,7.3
			S482.3,257.3,478.3,257.3z"/>
		<path fill="#FEE570" d="M33.5,257.3H21.7c-4,0-7.3-3.3-7.3-7.3s3.3-7.3,7.3-7.3h11.8c4,0,7.3,3.3,7.3,7.3S37.5,257.3,33.5,257.3z"
			/>
		<path fill="#FEE570" d="M403.1,104.2c-1.9,0-3.7-0.7-5.2-2.1c-2.9-2.9-2.9-7.5,0-10.4l8.3-8.3c2.9-2.9,7.5-2.9,10.4,0
			c2.9,2.9,2.9,7.5,0,10.4l-8.3,8.3C406.9,103.5,405,104.2,403.1,104.2z"/>
		<path fill="#FEE570" d="M88.6,418.8c-1.9,0-3.7-0.7-5.2-2.1c-2.9-2.9-2.9-7.5,0-10.4l8.3-8.3c2.9-2.9,7.5-2.9,10.4,0
			c2.9,2.9,2.9,7.5,0,10.4l-8.3,8.3C92.3,418,90.4,418.8,88.6,418.8z"/>
		<path fill="#FEE570" d="M411.4,418.8c-1.9,0-3.7-0.7-5.2-2.1l-8.3-8.3c-2.9-2.9-2.9-7.5,0-10.4c2.9-2.9,7.5-2.9,10.4,0l8.3,8.3
			c2.9,2.9,2.9,7.5,0,10.4C415.2,418,413.3,418.8,411.4,418.8z"/>
		<path fill="#FEE570" d="M96.9,104.2c-1.9,0-3.7-0.7-5.2-2.1l-8.3-8.3c-2.9-2.9-2.9-7.5,0-10.4c2.9-2.9,7.5-2.9,10.4,0l8.3,8.3
			c2.9,2.9,2.9,7.5,0,10.4C100.6,103.5,98.8,104.2,96.9,104.2z"/>
		<path fill="#FEE570" d="M337,59c-1,0-2-0.2-2.9-0.6c-3.7-1.6-5.4-5.9-3.8-9.6L335,38c1.6-3.7,5.9-5.4,9.6-3.8
			c3.7,1.6,5.4,5.9,3.8,9.6l-4.7,10.8C342.5,57.4,339.8,59,337,59z"/>
		<path fill="#FEE570" d="M158.3,466.4c-1,0-2-0.2-2.9-0.6c-3.7-1.6-5.4-5.9-3.8-9.6l4.7-10.8c1.6-3.7,5.9-5.4,9.6-3.8
			c3.7,1.6,5.4,5.9,3.8,9.6L165,462C163.8,464.8,161.1,466.4,158.3,466.4z"/>
		<path fill="#FEE570" d="M459.1,349c-1,0-2-0.2-2.9-0.6l-10.8-4.7c-3.7-1.6-5.4-5.9-3.8-9.6c1.6-3.7,5.9-5.4,9.6-3.8L462,335
			c3.7,1.6,5.4,5.9,3.8,9.6C464.6,347.4,461.9,349,459.1,349z"/>
		<path fill="#FEE570" d="M51.7,170.3c-1,0-2-0.2-2.9-0.6L38,165c-3.7-1.6-5.4-5.9-3.8-9.6c1.6-3.7,5.9-5.4,9.6-3.8l10.8,4.7
			c3.7,1.6,5.4,5.9,3.8,9.6C57.2,168.7,54.5,170.3,51.7,170.3z"/>
		<path fill="#FEE570" d="M451.7,178.6c-2.9,0-5.7-1.8-6.8-4.7c-1.5-3.8,0.4-8,4.2-9.5l11-4.3c3.8-1.5,8,0.4,9.5,4.2
			c1.5,3.8-0.4,8-4.2,9.5l-11,4.3C453.5,178.5,452.6,178.6,451.7,178.6z"/>
		<path fill="#FEE570" d="M37.3,340.3c-2.9,0-5.7-1.8-6.8-4.7c-1.5-3.8,0.4-8,4.2-9.5l11-4.3c3.8-1.5,8,0.4,9.5,4.2s-0.4,8-4.2,9.5
			l-11,4.3C39.1,340.1,38.2,340.3,37.3,340.3z"/>
		<path fill="#FEE570" d="M333,470c-2.9,0-5.7-1.8-6.8-4.7l-4.3-11c-1.5-3.8,0.4-8,4.2-9.5c3.8-1.5,8,0.4,9.5,4.2l4.3,11
			c1.5,3.8-0.4,8-4.2,9.5C334.8,469.9,333.9,470,333,470z"/>
		<path fill="#FEE570" d="M171.3,55.6c-2.9,0-5.7-1.8-6.8-4.7l-4.3-11c-1.5-3.8,0.4-8,4.2-9.5c3.8-1.5,8,0.4,9.5,4.2l4.3,11
			c1.5,3.8-0.4,8-4.2,9.5C173.1,55.4,172.2,55.6,171.3,55.6z"/>
	</g>
	<path clip-path="url(#SVGID_2_)" fill="#F4D451" d="M388.1,388.1c76.3-76.2,76.2-199.9,0-276.1L111.9,388.1
		C188.2,464.3,311.8,464.3,388.1,388.1z"/>
	<path clip-path="url(#SVGID_2_)" fill="#FEE570" d="M250,53.5c-108.5,0-196.5,88-196.5,196.5c0,21.7,3.5,42.5,10,62.1h58.8V146.8
		L250,274.5l127.7-127.7v165.3h58.8c6.5-19.5,10-40.4,10-62.1C446.5,141.5,358.5,53.5,250,53.5"/>
	<path clip-path="url(#SVGID_2_)" fill="#FEE570" d="M220.6,303.8l-55.7-55.7v104H82.1c34.5,56.6,96.8,94.4,167.9,94.4
		s133.4-37.8,167.9-94.4h-82.8v-104l-55.7,55.7L250,333.2L220.6,303.8L220.6,303.8L220.6,303.8z"/>
	<path clip-path="url(#SVGID_2_)" fill="#F9F6E8" d="M82.1,453.7"/>
</g>
<g>
	<polygon fill="#FEE570" points="229.7,142.7 215.8,144.4 207.3,131.6 221.1,129.9 	"/>
	<polygon fill="#F9B61E" points="229.7,142.7 236.6,130.6 228.1,117.8 221.1,129.9 	"/>
	<polygon fill="#FF901D" points="207.3,131.6 213.8,119.8 228.1,117.8 221.1,129.9 	"/>
</g>
<g>
	<polygon fill="#FEE570" points="155.9,217.3 145.7,219.8 138.2,211.1 148.4,208.5 	"/>
	<polygon fill="#F9B61E" points="155.9,217.3 159.9,207.6 152.4,198.9 148.4,208.5 	"/>
	<polygon fill="#FF901D" points="138.2,211.1 142,201.7 152.4,198.9 148.4,208.5 	"/>
</g>
<g>
	<polygon fill="#FEE570" points="43,241.1 21.7,246.5 5.9,228.1 27.2,222.7 	"/>
	<polygon fill="#F9B61E" points="43,241.1 51.6,220.8 35.8,202.4 27.2,222.7 	"/>
	<polygon fill="#FF901D" points="5.9,228.1 13.8,208.3 35.8,202.4 27.2,222.7 	"/>
</g>
<g>
	<polygon fill="#FEE570" points="125.4,47 119.3,46.6 116.7,40.4 122.8,40.8 	"/>
	<polygon fill="#F9B61E" points="125.4,47 129.4,42.4 126.8,36.1 122.8,40.8 	"/>
	<polygon fill="#FF901D" points="116.7,40.4 120.5,35.8 126.8,36.1 122.8,40.8 	"/>
</g>
<g>
	<polygon fill="#FEE570" points="108.3,107.1 103.7,108.3 100.3,104.3 104.9,103.1 	"/>
	<polygon fill="#F9B61E" points="108.3,107.1 110.2,102.7 106.8,98.7 104.9,103.1 	"/>
	<polygon fill="#FF901D" points="100.3,104.3 102,100 106.8,98.7 104.9,103.1 	"/>
</g>
<g>
	<polygon fill="#FEE570" points="37.1,380 32.5,381.2 29,377.2 33.7,376 	"/>
	<polygon fill="#F9B61E" points="37.1,380 39,375.6 35.5,371.6 33.7,376 	"/>
	<polygon fill="#FF901D" points="29,377.2 30.8,372.9 35.5,371.6 33.7,376 	"/>
</g>
<g>
	<polygon fill="#FEE570" points="55.1,108.2 46.7,110.3 40.5,103.1 48.9,101 	"/>
	<polygon fill="#F9B61E" points="55.1,108.2 58.4,100.3 52.2,93.1 48.9,101 	"/>
	<polygon fill="#FF901D" points="40.5,103.1 43.6,95.4 52.2,93.1 48.9,101 	"/>
</g>
<path fill="none" stroke="#000000" stroke-miterlimit="10" d="M670,191"/>
<g>
	<polygon fill="#FEE570" points="229.4,49.3 225.7,54.2 219,53 222.7,48.1 	"/>
	<polygon fill="#F9B61E" points="229.4,49.3 227.7,43.4 221.1,42.2 222.7,48.1 	"/>
	<polygon fill="#FF901D" points="219,53 217.3,47.3 221.1,42.2 222.7,48.1 	"/>
</g>
<g>
	<polygon fill="#FEE570" points="231.6,105 227.1,106.6 223.3,102.9 227.9,101.3 	"/>
	<polygon fill="#F9B61E" points="231.6,105 233.1,100.4 229.3,96.7 227.9,101.3 	"/>
	<polygon fill="#FF901D" points="223.3,102.9 224.7,98.5 229.3,96.7 227.9,101.3 	"/>
</g>
<g>
	<polygon fill="#FEE570" points="198.4,144.8 192.2,150.8 183.3,147.6 189.5,141.7 	"/>
	<polygon fill="#F9B61E" points="198.4,144.8 197.3,136.3 188.4,133.1 189.5,141.7 	"/>
	<polygon fill="#FF901D" points="183.3,147.6 182.1,139.4 188.4,133.1 189.5,141.7 	"/>
</g>
<g>
	<polygon fill="#FEE570" points="200.6,120.3 197.3,121.1 194.9,118.3 198.2,117.5 	"/>
	<polygon fill="#F9B61E" points="200.6,120.3 201.9,117.2 199.5,114.4 198.2,117.5 	"/>
	<polygon fill="#FF901D" points="194.9,118.3 196.1,115.3 199.5,114.4 198.2,117.5 	"/>
</g>
<g>
	<polygon fill="#FEE570" points="154.4,132.2 149.3,133.4 145.5,129.1 150.6,127.8 	"/>
	<polygon fill="#F9B61E" points="154.4,132.2 156.4,127.3 152.6,123 150.6,127.8 	"/>
	<polygon fill="#FF901D" points="145.5,129.1 147.4,124.4 152.6,123 150.6,127.8 	"/>
</g>
<g>
	<polygon fill="#FEE570" points="141.6,98.2 135.5,98.9 131.8,93.3 137.9,92.6 	"/>
	<polygon fill="#F9B61E" points="141.6,98.2 144.7,92.9 141,87.3 137.9,92.6 	"/>
	<polygon fill="#FF901D" points="131.8,93.3 134.7,88.1 141,87.3 137.9,92.6 	"/>
</g>
<g>
	<polygon fill="#FEE570" points="75.8,283.7 72.6,284.5 70.1,281.7 73.4,280.9 	"/>
	<polygon fill="#F9B61E" points="75.8,283.7 77.1,280.6 74.7,277.8 73.4,280.9 	"/>
	<polygon fill="#FF901D" points="70.1,281.7 71.4,278.7 74.7,277.8 73.4,280.9 	"/>
</g>
<g>
	<polygon fill="#FEE570" points="14.4,288.5 9.3,289.7 5.5,285.4 10.6,284.1 	"/>
	<polygon fill="#F9B61E" points="14.4,288.5 16.4,283.6 12.6,279.3 10.6,284.1 	"/>
	<polygon fill="#FF901D" points="5.5,285.4 7.4,280.7 12.6,279.3 10.6,284.1 	"/>
</g>
<g>
	<polygon fill="#FEE570" points="108.3,264.2 102.2,264.9 98.5,259.2 104.6,258.5 	"/>
	<polygon fill="#F9B61E" points="108.3,264.2 111.3,258.9 107.7,253.2 104.6,258.5 	"/>
	<polygon fill="#FF901D" points="98.5,259.2 101.4,254.1 107.7,253.2 104.6,258.5 	"/>
</g>
<g>
	<polygon fill="#FEE570" points="103.6,174 89.9,170.9 86.3,155.9 99.9,159 	"/>
	<polygon fill="#F9B61E" points="103.6,174 114.3,164.9 110.6,149.9 99.9,159 	"/>
	<polygon fill="#FF901D" points="86.3,155.9 96.5,147 110.6,149.9 99.9,159 	"/>
</g>
<g>
	<polygon fill="#FEE570" points="78.5,69.2 72.4,68.8 69.8,62.6 75.9,63 	"/>
	<polygon fill="#F9B61E" points="78.5,69.2 82.5,64.6 79.9,58.3 75.9,63 	"/>
	<polygon fill="#FF901D" points="69.8,62.6 73.6,58 79.9,58.3 75.9,63 	"/>
</g>
<g>
	<polygon fill="#FEE570" points="61.5,409.9 47.6,411.7 39.1,398.9 52.9,397.2 	"/>
	<polygon fill="#F9B61E" points="61.5,409.9 68.4,397.8 59.8,385 52.9,397.2 	"/>
	<polygon fill="#FF901D" points="39.1,398.9 45.6,387 59.8,385 52.9,397.2 	"/>
</g>
<g>
	<polygon fill="#FEE570" points="81,386.3 76.5,387.9 72.7,384.2 77.2,382.7 	"/>
	<polygon fill="#F9B61E" points="81,386.3 82.5,381.8 78.7,378.1 77.2,382.7 	"/>
	<polygon fill="#FF901D" points="72.7,384.2 74,379.8 78.7,378.1 77.2,382.7 	"/>
</g>
<g>
	<polygon fill="#FEE570" points="82.2,425.8 76.1,431.8 67.1,428.7 73.3,422.7 	"/>
	<polygon fill="#F9B61E" points="82.2,425.8 81.2,417.3 72.2,414.2 73.3,422.7 	"/>
	<polygon fill="#FF901D" points="67.1,428.7 66,420.4 72.2,414.2 73.3,422.7 	"/>
</g>
<g>
	<polygon fill="#FEE570" points="27.7,361.2 22.6,362.5 18.9,358.1 23.9,356.8 	"/>
	<polygon fill="#F9B61E" points="27.7,361.2 29.7,356.4 26,352 23.9,356.8 	"/>
	<polygon fill="#FF901D" points="18.9,358.1 20.7,353.4 26,352 23.9,356.8 	"/>
</g>
<g>
	<polygon fill="#FEE570" points="20.7,329.8 14.6,330.5 11,324.9 17,324.2 	"/>
	<polygon fill="#F9B61E" points="20.7,329.8 23.8,324.5 20.1,318.9 17,324.2 	"/>
	<polygon fill="#FF901D" points="11,324.9 13.9,319.7 20.1,318.9 17,324.2 	"/>
</g>
<g>
	<polygon fill="#FEE570" points="68.9,133.2 66.2,135.1 62.9,133.5 65.7,131.5 	"/>
	<polygon fill="#F9B61E" points="68.9,133.2 69,129.8 65.7,128.1 65.7,131.5 	"/>
	<polygon fill="#FF901D" points="62.9,133.5 62.9,130.2 65.7,128.1 65.7,131.5 	"/>
</g>
<g>
	<polygon fill="#FEE570" points="79.2,194.7 75,197.8 69.9,195.1 74.1,192 	"/>
	<polygon fill="#F9B61E" points="79.2,194.7 79.3,189.4 74.2,186.8 74.1,192 	"/>
	<polygon fill="#FF901D" points="69.9,195.1 69.9,190.1 74.2,186.8 74.1,192 	"/>
</g>
<g>
	<polygon fill="#FEE570" points="28.3,158.6 22.9,161.6 17.4,157.7 22.8,154.8 	"/>
	<polygon fill="#F9B61E" points="28.3,158.6 29.2,152.5 23.6,148.7 22.8,154.8 	"/>
	<polygon fill="#FF901D" points="17.4,157.7 18.1,151.8 23.6,148.7 22.8,154.8 	"/>
</g>
<g>
	<polygon fill="#FEE570" points="203.8,348 200.7,348.7 198.4,346.1 201.5,345.3 	"/>
	<polygon fill="#F9B61E" points="203.8,348 205,345 202.7,342.4 201.5,345.3 	"/>
	<polygon fill="#FF901D" points="198.4,346.1 199.5,343.2 202.7,342.4 201.5,345.3 	"/>
</g>
<g>
	<polygon fill="#FEE570" points="273.8,84.7 269.3,86.2 265.5,82.6 270,81 	"/>
	<polygon fill="#F9B61E" points="273.8,84.7 275.2,80.1 271.4,76.4 270,81 	"/>
	<polygon fill="#FF901D" points="265.5,82.6 266.8,78.1 271.4,76.4 270,81 	"/>
</g>
<g>
	<polygon fill="#FEE570" points="302.4,49.5 299.2,50.4 296.7,47.6 300,46.7 	"/>
	<polygon fill="#F9B61E" points="302.4,49.5 303.7,46.4 301.3,43.6 300,46.7 	"/>
	<polygon fill="#FF901D" points="296.7,47.6 298,44.5 301.3,43.6 300,46.7 	"/>
</g>
<g>
	<polygon fill="#FEE570" points="175.8,274.8 169.7,275.5 166,269.9 172.1,269.2 	"/>
	<polygon fill="#F9B61E" points="175.8,274.8 178.9,269.5 175.2,263.9 172.1,269.2 	"/>
	<polygon fill="#FF901D" points="166,269.9 169,264.7 175.2,263.9 172.1,269.2 	"/>
</g>
<g>
	<polygon fill="#FEE570" points="292.5,185.9 287.2,188.9 281.6,185.1 287,182.1 	"/>
	<polygon fill="#F9B61E" points="292.5,185.9 293.4,179.9 287.8,176 287,182.1 	"/>
	<polygon fill="#FF901D" points="281.6,185.1 282.3,179.2 287.8,176 287,182.1 	"/>
</g>
<g>
	<polygon fill="#FEE570" points="270.5,187.9 267.4,188.7 265.2,186 268.2,185.3 	"/>
	<polygon fill="#F9B61E" points="270.5,187.9 271.8,185 269.5,182.3 268.2,185.3 	"/>
	<polygon fill="#FF901D" points="265.2,186 266.3,183.2 269.5,182.3 268.2,185.3 	"/>
</g>
<g>
	<polygon fill="#FEE570" points="124,348.5 119.9,349.5 117,346.1 121,345 	"/>
	<polygon fill="#F9B61E" points="124,348.5 125.6,344.7 122.6,341.2 121,345 	"/>
	<polygon fill="#FF901D" points="117,346.1 118.5,342.3 122.6,341.2 121,345 	"/>
</g>
<g>
	<polygon fill="#FEE570" points="97.8,235.9 85.6,242.7 72.8,234.1 85.1,227.2 	"/>
	<polygon fill="#F9B61E" points="97.8,235.9 99.7,222 86.9,213.3 85.1,227.2 	"/>
	<polygon fill="#FF901D" points="72.8,234.1 74.4,220.6 86.9,213.3 85.1,227.2 	"/>
</g>
<g>
	<polygon fill="#FEE570" points="214.4,187.7 208.2,187.3 205.7,181.1 211.8,181.5 	"/>
	<polygon fill="#F9B61E" points="214.4,187.7 218.4,183.1 215.8,176.8 211.8,181.5 	"/>
	<polygon fill="#FF901D" points="205.7,181.1 209.5,176.5 215.8,176.8 211.8,181.5 	"/>
</g>
<g>
	<polygon fill="#FEE570" points="140.9,158.3 136.7,161.4 131.5,158.8 135.7,155.7 	"/>
	<polygon fill="#F9B61E" points="140.9,158.3 140.9,153.1 135.8,150.4 135.7,155.7 	"/>
	<polygon fill="#FF901D" points="131.5,158.8 131.5,153.7 135.8,150.4 135.7,155.7 	"/>
</g>
<g>
	<polygon fill="#FEE570" points="192.8,50.5 185.3,54.6 177.5,49.2 185.1,45.1 	"/>
	<polygon fill="#F9B61E" points="192.8,50.5 194.1,42 186.3,36.6 185.1,45.1 	"/>
	<polygon fill="#FF901D" points="177.5,49.2 178.6,40.9 186.3,36.6 185.1,45.1 	"/>
</g>
<g>
	<polygon fill="#FEE570" points="339.6,107.4 336.5,108.2 334.3,105.5 337.3,104.7 	"/>
	<polygon fill="#F9B61E" points="339.6,107.4 340.8,104.4 338.6,101.8 337.3,104.7 	"/>
	<polygon fill="#FF901D" points="334.3,105.5 335.4,102.6 338.6,101.8 337.3,104.7 	"/>
</g>
<g>
	<polygon fill="#FEE570" points="176.5,187.5 172,189.1 168.2,185.4 172.7,183.8 	"/>
	<polygon fill="#F9B61E" points="176.5,187.5 177.9,182.9 174.1,179.3 172.7,183.8 	"/>
	<polygon fill="#FF901D" points="168.2,185.4 169.5,181 174.1,179.3 172.7,183.8 	"/>
</g>
<g>
	<polygon fill="#FEE570" points="167.3,24.2 158.8,25.7 153.2,18.1 161.7,16.6 	"/>
	<polygon fill="#F9B61E" points="167.3,24.2 171.2,16.6 165.6,9 161.7,16.6 	"/>
	<polygon fill="#FF901D" points="153.2,18.1 156.9,10.6 165.6,9 161.7,16.6 	"/>
</g>
<g>
	<polygon fill="#FEE570" points="202.8,9 199.5,9.3 197.5,6.2 200.8,5.9 	"/>
	<polygon fill="#F9B61E" points="202.8,9 204.6,6.1 202.6,3 200.8,5.9 	"/>
	<polygon fill="#FF901D" points="197.5,6.2 199.2,3.4 202.6,3 200.8,5.9 	"/>
</g>
<g>
	<polygon fill="#FEE570" points="246.5,14.9 239.2,22.4 228.2,18.8 235.6,11.3 	"/>
	<polygon fill="#F9B61E" points="246.5,14.9 245,4.6 234,1 235.6,11.3 	"/>
	<polygon fill="#FF901D" points="228.2,18.8 226.5,8.8 234,1 235.6,11.3 	"/>
</g>
<g>
	<polygon fill="#FEE570" points="163.3,72.6 158.5,74.6 154.1,70.9 159,68.8 	"/>
	<polygon fill="#F9B61E" points="163.3,72.6 164.6,67.5 160.2,63.8 159,68.8 	"/>
	<polygon fill="#FF901D" points="154.1,70.9 155.3,65.9 160.2,63.8 159,68.8 	"/>
</g>
<g>
	<polygon fill="#FEE570" points="194.9,85.6 189,87.2 184.5,82.1 190.4,80.5 	"/>
	<polygon fill="#F9B61E" points="194.9,85.6 197.2,79.9 192.7,74.8 190.4,80.5 	"/>
	<polygon fill="#FF901D" points="184.5,82.1 186.6,76.6 192.7,74.8 190.4,80.5 	"/>
</g>
<g>
	<polygon fill="#FEE570" points="24.2,26.1 21.9,27.8 19.1,26.4 21.4,24.7 	"/>
	<polygon fill="#F9B61E" points="24.2,26.1 24.3,23.2 21.4,21.8 21.4,24.7 	"/>
	<polygon fill="#FF901D" points="19.1,26.4 19,23.6 21.4,21.8 21.4,24.7 	"/>
</g>
<g>
	<polygon fill="#FEE570" points="25.7,64.5 24,66.8 20.8,66.3 22.6,64 	"/>
	<polygon fill="#F9B61E" points="25.7,64.5 24.9,61.7 21.7,61.2 22.6,64 	"/>
	<polygon fill="#FF901D" points="20.8,66.3 20,63.6 21.7,61.2 22.6,64 	"/>
</g>
<g>
	<polygon fill="#FEE570" points="74.4,28.2 71.7,29.3 69.3,27.1 72,26.1 	"/>
	<polygon fill="#F9B61E" points="74.4,28.2 75.2,25.4 72.8,23.2 72,26.1 	"/>
	<polygon fill="#FF901D" points="69.3,27.1 70,24.4 72.8,23.2 72,26.1 	"/>
</g>
<g>
	<polygon fill="#FEE570" points="38.3,37.7 36.6,38.4 35.2,37.1 36.8,36.4 	"/>
	<polygon fill="#F9B61E" points="38.3,37.7 38.8,36 37.3,34.7 36.8,36.4 	"/>
	<polygon fill="#FF901D" points="35.2,37.1 35.6,35.4 37.3,34.7 36.8,36.4 	"/>
</g>
<g>
	<polygon fill="#FEE570" points="226.4,74.5 223.7,75.6 221.3,73.5 224,72.4 	"/>
	<polygon fill="#F9B61E" points="226.4,74.5 227.1,71.7 224.7,69.6 224,72.4 	"/>
	<polygon fill="#FF901D" points="221.3,73.5 222,70.7 224.7,69.6 224,72.4 	"/>
</g>
<g>
	<polygon fill="#FEE570" points="251.3,33.6 249.7,34.2 248.2,32.9 249.9,32.3 	"/>
	<polygon fill="#F9B61E" points="251.3,33.6 251.8,31.9 250.3,30.6 249.9,32.3 	"/>
	<polygon fill="#FF901D" points="248.2,32.9 248.6,31.3 250.3,30.6 249.9,32.3 	"/>
</g>
<g>
	<polygon fill="#FEE570" points="54.6,258.8 48.5,258.4 45.9,252.2 52,252.6 	"/>
	<polygon fill="#F9B61E" points="54.6,258.8 58.6,254.2 56,248 52,252.6 	"/>
	<polygon fill="#FF901D" points="45.9,252.2 49.7,247.6 56,248 52,252.6 	"/>
</g>
</svg>
